<svg width="89" height="30" viewBox="0 0 89 30" fill="none" xmlns="http://www.w3.org/2000/svg">
<g clip-path="url(#clip0_662_864)">
<path d="M27.9382 29.9999H23.8194C23.4126 30.0195 23.0114 29.894 22.6814 29.6439C22.3901 29.4096 22.1672 29.0946 22.0377 28.7345L19.8993 22.6124H8.04057L5.9005 28.7345C5.77566 29.0812 5.5595 29.3836 5.27716 29.6066C4.95235 29.8749 4.54746 30.0142 4.13408 29.9999H0L11.2456 -0.000116646H16.6909L27.9382 29.9999ZM9.39935 18.6722H18.5269L15.0485 8.69182C14.8899 8.24928 14.715 7.72724 14.5236 7.12571C14.3323 6.52418 14.1443 5.87281 13.9598 5.17162C13.7752 5.87756 13.5934 6.53426 13.4145 7.14172C13.2356 7.74919 13.0607 8.28309 12.8897 8.74343L9.39935 18.6722ZM56.3112 14.999C56.3327 17.0676 55.9764 19.1215 55.2615 21.0499C54.6013 22.8342 53.597 24.4567 52.3113 25.8159C51.0075 27.1655 49.4498 28.2159 47.7373 28.9C45.8473 29.6537 43.8385 30.0269 41.8164 29.9999H30.8884V-0.000116646H41.8181C43.8411 -0.0270518 45.8505 0.349832 47.739 1.1104C49.4495 1.80187 51.0064 2.85403 52.313 4.2017C53.5963 5.55157 54.5991 7.16518 55.2581 8.94098C55.975 10.8714 56.3325 12.9277 56.3112 14.999ZM50.8659 14.999C50.8869 13.4961 50.6729 11.9998 50.2324 10.5694C49.8551 9.34529 49.2417 8.21554 48.4303 7.25028C47.6445 6.34205 46.6732 5.63149 45.5887 5.17162C44.3894 4.67098 43.1073 4.42419 41.8164 4.44551H36.2539V25.5596H41.8181C43.109 25.5809 44.3911 25.3341 45.5904 24.8335C46.6749 24.3713 47.6457 23.6583 48.4303 22.7477C49.2417 21.7824 49.8551 20.6527 50.2324 19.4286C50.6729 17.9982 50.8869 16.5019 50.8659 14.999Z" fill="#3B3B3B"/>
<path d="M77.6305 14.9985H71.5806L60.2144 29.9976H64.7884C65.2486 29.9974 65.7029 29.8883 66.1172 29.6784C66.5316 29.4686 66.8954 29.1634 67.1815 28.7857L74.6038 18.9975L77.6305 14.9985Z" fill="#6A7CFF"/>
<path d="M77.6305 14.9993L74.6056 11.0039L67.1832 1.21573C66.8967 0.83865 66.5328 0.534163 66.1184 0.324938C65.7041 0.115713 65.25 0.00714182 64.79 0.00732445H60.2161L71.5823 15.0064L77.6305 14.9993Z" fill="#554AE2"/>
<path d="M88.9999 0.00146484L80.6588 11.0052L77.6338 7.01695L82.0328 1.21876C82.3191 0.841358 82.683 0.536532 83.0974 0.326994C83.5117 0.117456 83.9659 0.00860996 84.426 0.00857964L88.9999 0.00146484Z" fill="#6A7CFF"/>
<path d="M88.9999 29.9984H84.4243C83.9642 29.9983 83.51 29.8895 83.0957 29.6799C82.6813 29.4704 82.3174 29.1656 82.0311 28.7882L77.6321 22.99L80.6571 18.9946L88.9999 29.9984Z" fill="#6A7CFF"/>
</g>
<defs>
<clipPath id="clip0_662_864">
<rect width="89" height="30" fill="white"/>
</clipPath>
</defs>
</svg>
