<svg width="57" height="60" viewBox="0 0 57 60" fill="none" xmlns="http://www.w3.org/2000/svg">
<path d="M40.4385 25.335C41.2488 27.5247 42.9753 29.2512 45.165 30.0615L54.1191 33.375L45.165 36.6885C42.9753 37.4988 41.2488 39.2253 40.4385 41.415L37.125 50.3691L33.8115 41.415C33.0012 39.2253 31.2747 37.4988 29.085 36.6885L20.1299 33.375L29.085 30.0615C31.2747 29.2512 33.0012 27.5247 33.8115 25.335L37.125 16.3799L40.4385 25.335Z" stroke="#E79C2B" stroke-width="2"/>
<path d="M11.7578 43.5156C12.5681 45.7054 14.2946 47.4319 16.4844 48.2422L18.8691 49.125L16.4844 50.0078C14.2946 50.8181 12.5681 52.5446 11.7578 54.7344L10.875 57.1191L9.99219 54.7344C9.18191 52.5446 7.45538 50.8181 5.26562 50.0078L2.87988 49.125L5.26562 48.2422C7.45538 47.4319 9.18191 45.7054 9.99219 43.5156L10.875 41.1299L11.7578 43.5156Z" stroke="#E79C2B" stroke-width="2"/>
<path d="M17.7578 5.26562C18.5681 7.45538 20.2946 9.18191 22.4844 9.99219L24.8691 10.875L22.4844 11.7578C20.2946 12.5681 18.5681 14.2946 17.7578 16.4844L16.875 18.8691L15.9922 16.4844C15.1819 14.2946 13.4554 12.5681 11.2656 11.7578L8.87988 10.875L11.2656 9.99219C13.4554 9.18191 15.1819 7.45538 15.9922 5.26562L16.875 2.87988L17.7578 5.26562Z" stroke="#E79C2B" stroke-width="2"/>
</svg>
