<svg width="60" height="42" viewBox="0 0 60 42" fill="none" xmlns="http://www.w3.org/2000/svg">
<rect x="1" y="1" width="58" height="40" rx="5" stroke="#3581DA" stroke-width="2"/>
<circle cx="16.5022" cy="21.0022" r="10.9221" stroke="#3581DA" stroke-width="2"/>
<circle cx="16.4995" cy="20.9995" r="2.41744" stroke="#3581DA" stroke-width="2"/>
<path d="M17.6419 10.5C16.3456 11.537 14.2197 14.7 16.0864 19.0556" stroke="#3581DA" stroke-width="2"/>
<path d="M15.3522 31.5C16.6485 30.463 18.7744 27.3 16.9078 22.9444" stroke="#3581DA" stroke-width="2"/>
<path d="M24.7348 14.3871C23.0849 14.2038 19.3451 14.9371 17.5851 19.3369" stroke="#3581DA" stroke-width="2"/>
<path d="M8.26522 27.6187C9.91514 27.8021 13.6549 27.0688 15.4149 22.669" stroke="#3581DA" stroke-width="2"/>
<path d="M27 22.1419C25.963 20.8456 22.8 18.7197 18.4444 20.5864" stroke="#3581DA" stroke-width="2"/>
<path d="M6 19.8522C7.03704 21.1485 10.2 23.2744 14.5556 21.4078" stroke="#3581DA" stroke-width="2"/>
<path d="M23.1187 29.2348C23.3021 27.5849 22.5688 23.8451 18.169 22.0851" stroke="#3581DA" stroke-width="2"/>
<path d="M9.88712 12.7652C9.7038 14.4151 10.4371 18.1549 14.8369 19.9149" stroke="#3581DA" stroke-width="2"/>
<circle cx="43.4963" cy="21.0022" r="10.9221" stroke="#3581DA" stroke-width="2"/>
<circle cx="43.4995" cy="20.9995" r="2.41744" stroke="#3581DA" stroke-width="2"/>
<path d="M44.6419 10.5C43.3456 11.537 41.2197 14.7 43.0864 19.0556" stroke="#3581DA" stroke-width="2"/>
<path d="M42.3522 31.5C43.6485 30.463 45.7744 27.3 43.9078 22.9444" stroke="#3581DA" stroke-width="2"/>
<path d="M51.7348 14.3871C50.0849 14.2038 46.3451 14.9371 44.5851 19.3369" stroke="#3581DA" stroke-width="2"/>
<path d="M35.2652 27.6187C36.9151 27.8021 40.6549 27.0688 42.4149 22.669" stroke="#3581DA" stroke-width="2"/>
<path d="M54 22.1419C52.963 20.8456 49.8 18.7197 45.4444 20.5864" stroke="#3581DA" stroke-width="2"/>
<path d="M33 19.8522C34.037 21.1485 37.2 23.2744 41.5556 21.4078" stroke="#3581DA" stroke-width="2"/>
<path d="M50.1187 29.2348C50.3021 27.5849 49.5688 23.8451 45.169 22.0851" stroke="#3581DA" stroke-width="2"/>
<path d="M36.8871 12.7652C36.7038 14.4151 37.4371 18.1549 41.8369 19.9149" stroke="#3581DA" stroke-width="2"/>
</svg>
