<svg width="60" height="60" viewBox="0 0 60 60" fill="none" xmlns="http://www.w3.org/2000/svg">
<rect x="17.4565" y="17.3901" width="25.087" height="25.087" rx="2.5" stroke="#55D052"/>
<path d="M43.0435 29.9336H56.0869" stroke="#55D052"/>
<circle cx="57.3913" cy="29.9339" r="2.1087" stroke="#55D052"/>
<path d="M43.0537 22.8262H49.5754" stroke="#55D052"/>
<circle cx="50.8798" cy="22.826" r="2.1087" stroke="#55D052"/>
<path d="M43.0537 37.1738H49.5754" stroke="#55D052"/>
<circle cx="50.8798" cy="37.1741" r="2.1087" stroke="#55D052"/>
<path d="M30.0663 43.0435L30.0663 56.0869" stroke="#55D052"/>
<circle cx="30.0662" cy="57.3914" r="2.1087" transform="rotate(90 30.0662 57.3914)" stroke="#55D052"/>
<path d="M37.174 43.0483L37.1739 49.5701" stroke="#55D052"/>
<circle cx="37.1739" cy="50.8748" r="2.1087" transform="rotate(90 37.1739 50.8748)" stroke="#55D052"/>
<path d="M22.826 43.0483L22.826 49.5701" stroke="#55D052"/>
<circle cx="22.8261" cy="50.8748" r="2.1087" transform="rotate(90 22.8261 50.8748)" stroke="#55D052"/>
<path d="M16.9565 29.9336H3.91306" stroke="#55D052"/>
<circle cx="2.6087" cy="2.6087" r="2.1087" transform="matrix(-1 0 0 1 5.21741 27.3252)" stroke="#55D052"/>
<path d="M16.9463 22.8262H10.4246" stroke="#55D052"/>
<circle cx="2.6087" cy="2.6087" r="2.1087" transform="matrix(-1 0 0 1 11.7289 20.2173)" stroke="#55D052"/>
<path d="M16.9463 37.1738H10.4246" stroke="#55D052"/>
<circle cx="2.6087" cy="2.6087" r="2.1087" transform="matrix(-1 0 0 1 11.7289 34.5654)" stroke="#55D052"/>
<path d="M30.0663 16.9565L30.0663 3.91306" stroke="#55D052"/>
<circle cx="2.6087" cy="2.6087" r="2.1087" transform="matrix(4.37114e-08 -1 -1 -4.37114e-08 32.6749 5.21729)" stroke="#55D052"/>
<path d="M37.174 16.9517L37.174 10.4299" stroke="#55D052"/>
<circle cx="2.6087" cy="2.6087" r="2.1087" transform="matrix(4.37114e-08 -1 -1 -4.37114e-08 39.7826 11.7339)" stroke="#55D052"/>
<path d="M22.826 16.9517L22.8261 10.4299" stroke="#55D052"/>
<circle cx="2.6087" cy="2.6087" r="2.1087" transform="matrix(4.37114e-08 -1 -1 -4.37114e-08 25.4348 11.7339)" stroke="#55D052"/>
<path d="M23.4783 36.4553C25.2611 31.6162 28.0435 24.064 28.0435 24.064L32.6087 36.4553" stroke="#55D052"/>
<path d="M36.5217 23.4121V36.4556" stroke="#55D052"/>
<path d="M25.4348 31.8901H30.6522" stroke="#55D052"/>
</svg>
