<svg width="117" height="40" viewBox="0 0 117 40" fill="none" xmlns="http://www.w3.org/2000/svg">
<path d="M65.857 19.5479C65.013 19.1675 64.0375 18.9288 62.931 18.832L61.7688 18.7282C61.0767 18.6731 60.5787 18.4864 60.2746 18.1678C59.9702 17.8498 59.818 17.4761 59.818 17.047C59.818 16.7151 59.9009 16.4074 60.067 16.1236C60.2331 15.84 60.4852 15.6152 60.8244 15.4491C61.1633 15.283 61.5818 15.2001 62.0798 15.2001C62.6054 15.2001 63.0447 15.2969 63.3976 15.4906C63.7504 15.6845 64.0166 15.9369 64.1967 16.2479C64.3764 16.5593 64.4666 16.9015 64.4666 17.2752H67.7868C67.7868 16.2791 67.5587 15.411 67.1021 14.6709C66.6455 13.931 65.9919 13.3567 65.141 12.9486C64.2902 12.5407 63.2699 12.3364 62.0801 12.3364C60.9454 12.3364 59.9632 12.5268 59.1333 12.9071C58.3033 13.2878 57.6563 13.8306 57.1928 14.5362C56.7292 15.2418 56.4974 16.0791 56.4974 17.0473C56.4974 18.3893 56.9468 19.4686 57.8464 20.2847C58.7456 21.1011 59.9493 21.5713 61.4574 21.6959L62.5987 21.7997C63.5256 21.8826 64.1967 22.0663 64.6118 22.3495C65.027 22.6333 65.2345 23.017 65.2345 23.5011C65.2345 23.8888 65.1235 24.231 64.9026 24.5284C64.6811 24.8262 64.3558 25.0576 63.9274 25.2237C63.4983 25.3899 62.9658 25.4728 62.3294 25.4728C61.6238 25.4728 61.0495 25.3726 60.6071 25.172C60.1642 24.9717 59.8359 24.7051 59.6213 24.3729C59.4068 24.041 59.2997 23.6812 59.2997 23.2939H56C56 24.2764 56.2418 25.1445 56.7262 25.8982C57.2103 26.6525 57.9226 27.2471 58.8637 27.6828C59.8044 28.1186 60.9596 28.3364 62.3291 28.3364C63.6157 28.3364 64.7226 28.1358 65.6494 27.7346C66.5762 27.3334 67.2921 26.7696 67.7971 26.0431C68.3021 25.3169 68.5545 24.4694 68.5545 23.5008C68.5545 22.5601 68.3157 21.7613 67.8386 21.1041C67.3614 20.4475 66.7006 19.9285 65.857 19.5479Z" fill="white"/>
<path d="M84.2014 14.8061C83.5233 14.059 82.6794 13.4608 81.6697 13.0109C80.6597 12.5615 79.4908 12.3364 78.1625 12.3364C76.8344 12.3364 75.6649 12.5615 74.6552 13.0109C73.6452 13.4605 72.801 14.0587 72.1235 14.8061C71.4454 15.5532 70.9371 16.3868 70.5982 17.3067C70.259 18.2268 70.0898 19.1573 70.0898 20.098V20.5546C70.0898 21.3985 70.2523 22.2769 70.5776 23.1901C70.9026 24.1033 71.3973 24.9508 72.0615 25.7321C72.7256 26.514 73.5659 27.1433 74.5829 27.6205C75.5999 28.0977 76.793 28.3364 78.1628 28.3364C79.5323 28.3364 80.7256 28.0977 81.7426 27.6205C82.7596 27.1433 83.5999 26.5137 84.2641 25.7321C84.9282 24.9505 85.4263 24.103 85.7582 23.1901C86.0901 22.2769 86.2563 21.3985 86.2563 20.5546V20.098C86.2563 19.1573 86.0832 18.2271 85.7373 17.3067C85.3912 16.3868 84.8792 15.5532 84.2014 14.8061ZM82.4997 22.2146C82.2921 22.7955 81.9841 23.3075 81.5762 23.7502C81.168 24.1932 80.6766 24.5387 80.1029 24.7877C79.5286 25.0368 78.8817 25.1611 78.1625 25.1611C77.4429 25.1611 76.7996 25.0365 76.2326 24.7877C75.6652 24.5387 75.1775 24.1932 74.7696 23.7502C74.3614 23.3075 74.0537 22.7955 73.8461 22.2146C73.6385 21.6336 73.5348 21.0109 73.5348 20.3467C73.5348 19.6411 73.6385 18.9945 73.8461 18.4062C74.0537 17.8183 74.3614 17.3064 74.7696 16.8706C75.1775 16.4349 75.6652 16.0997 76.2326 15.8642C76.7996 15.6291 77.4429 15.5114 78.1625 15.5114C78.8817 15.5114 79.525 15.6291 80.0923 15.8642C80.6594 16.0997 81.1471 16.4349 81.5553 16.8706C81.9632 17.3064 82.2746 17.8183 82.4891 18.4062C82.7033 18.9945 82.8107 19.6411 82.8107 20.3467C82.811 21.0109 82.7073 21.6336 82.4997 22.2146Z" fill="white"/>
<path d="M100.19 20.876C100.695 20.1362 100.947 19.2055 100.947 18.0847V17.7528C100.947 16.6184 100.698 15.6776 100.2 14.9306C99.7024 14.1835 98.9898 13.6201 98.063 13.2391C97.1359 12.8588 96.0429 12.6685 94.7842 12.6685H92.2316H91.3184H88.8281V27.9423H92.2316V23.0861H94.7119L98.0215 27.9423H101.964L98.0953 22.5185C98.9943 22.152 99.6927 21.605 100.19 20.876ZM92.2316 15.5533H95.0538C95.5518 15.5533 95.9842 15.6537 96.3507 15.8541C96.7171 16.0547 97.0009 16.3385 97.2015 16.7049C97.4018 17.0717 97.5026 17.4971 97.5026 17.9812C97.5026 18.4657 97.4021 18.8911 97.2015 19.2575C97.0009 19.6242 96.7171 19.9081 96.3507 20.1084C95.9839 20.309 95.5518 20.4094 95.0538 20.4094H92.2316V15.5533Z" fill="white"/>
<path d="M115.73 15.2078C115.208 14.3648 114.435 13.7245 113.43 13.3055C112.405 12.8776 111.119 12.6606 109.608 12.6606C109.087 12.6606 108.51 12.67 107.895 12.6885C107.289 12.7069 106.694 12.7351 106.127 12.7714C105.665 12.8014 105.25 12.8313 104.889 12.8604V16.0541C105.377 16.0239 105.911 15.9933 106.511 15.9615C107.213 15.9249 107.907 15.8965 108.573 15.878C109.258 15.8593 109.788 15.8499 110.191 15.8499C111.082 15.8499 111.748 16.0753 112.171 16.5198C112.591 16.9607 112.804 17.6142 112.804 18.4624V18.7976H109.775C108.46 18.7976 107.284 18.9659 106.28 19.2972C105.3 19.6213 104.531 20.1236 103.994 20.7899C103.464 21.4486 103.195 22.3097 103.195 23.3497C103.195 24.3098 103.414 25.1425 103.846 25.8245C104.278 26.5066 104.887 27.037 105.659 27.4013C106.441 27.7708 107.368 27.9577 108.414 27.9577C109.418 27.9577 110.275 27.7729 110.963 27.4073C111.644 27.0452 112.185 26.5208 112.573 25.8484C112.747 25.548 112.892 25.2109 113.007 24.846L113.554 24.9298V27.5692H116.521V18.5181C116.521 17.1707 116.255 16.0568 115.73 15.2078ZM112.804 22.2183L112.804 22.2253C112.765 23.0284 112.601 23.6707 112.319 24.1343C112.03 24.6081 111.656 24.9489 111.207 25.1474C110.776 25.3383 110.284 25.4351 109.747 25.4351C108.901 25.4351 108.235 25.2191 107.767 24.7927C107.292 24.36 107.051 23.7909 107.051 23.1004C107.051 22.3736 107.292 21.785 107.767 21.3517C108.236 20.9257 108.901 20.7097 109.747 20.7097H112.804V22.2183Z" fill="white"/>
<path d="M39.7349 16.725C35.889 17.1236 32.8776 15.1481 32.8304 15.1174C31.3741 12.4293 28.7195 10.309 25.99 9.04651C24.667 8.43476 23.2555 8.03119 21.8288 7.74306C19.3702 7.24628 16.7804 7.07265 14.3446 7.78233C13.2821 8.09175 12.2015 8.62354 11.6613 9.58705C11.1138 10.5633 11.2471 11.8204 11.7989 12.7941C12.3512 13.7676 13.2671 14.4895 14.2466 15.0341C16.4841 16.2791 19.0376 16.6844 21.5767 17.1579C20.7751 17.1203 18.6718 18.0623 17.7115 18.5146C17.1095 18.7985 16.4863 19.0374 15.8455 19.2191C11.9021 20.3373 9.87336 18.9165 9.82141 18.8794L9.82046 18.8787C8.56363 17.8541 7.66881 16.7825 7.03163 15.7835C5.54113 13.447 5.46143 11.5093 5.46143 11.5093C4.9578 6.81716 8.32902 3.75488 8.38192 3.70733C8.38216 3.70686 8.3824 3.70662 8.3824 3.70662C11.0913 1.77558 14.3223 0.493652 17.8695 0.114918C28.4818 -1.01774 38.042 6.3464 39.7349 16.725Z" fill="white"/>
<path d="M39.8846 17.8216C40.6845 25.2737 37.259 32.2056 31.5273 36.244C35.3628 33.0019 35.5445 27.6043 33.0665 23.6114C33.5998 22.3725 33.9411 21.0468 33.9753 19.6956C34.0163 18.0449 33.5839 16.5053 32.8318 15.1177C32.8791 15.1484 35.8904 17.1239 39.7363 16.7253C39.7954 17.0868 39.845 17.4523 39.8846 17.8216Z" fill="white"/>
<path d="M31.5271 36.2448C31.5269 36.2451 31.5269 36.2456 31.5266 36.2456C28.8358 38.1414 25.637 39.3991 22.1282 39.7739C11.1465 40.946 1.29075 33.0189 0.11529 22.0678C-0.680603 14.6544 2.70532 7.75511 8.38333 3.7085C8.33043 3.75604 4.95921 6.81856 5.46284 11.5105C5.46284 11.5105 5.54254 13.4482 7.03303 15.7847C6.37165 16.7416 6.07393 17.9296 6.08579 19.0949C6.09837 20.3491 6.45017 21.5819 6.95784 22.7294C8.25949 25.6703 10.5981 28.1074 13.3867 29.7198C16.175 31.3322 19.3951 32.141 22.6166 32.255C23.8692 32.2995 25.1538 32.2356 26.3176 31.7717C27.6691 31.2328 28.7971 30.1432 28.8251 28.6512C28.9095 24.1748 18.9309 22.9123 18.9309 22.9123C14.7118 22.0062 11.8134 20.5029 9.82281 18.8806C9.87477 18.9175 11.9035 20.3385 15.8469 19.2203C16.4877 19.0386 17.1109 18.7997 17.713 18.5158C18.6732 18.0635 20.7765 17.1215 21.5781 17.1591C21.5783 17.1593 21.5788 17.1591 21.579 17.1591C22.7336 17.3749 23.8851 17.6046 25.0022 17.9336C27.4316 18.6497 29.7422 19.8708 31.5261 21.6646C31.5468 21.6857 31.5674 21.7065 31.5881 21.7273C32.1536 22.3043 32.648 22.9383 33.0662 23.6125C35.5443 27.6052 35.3626 33.0028 31.5271 36.2448Z" fill="white"/>
</svg>
