<svg width="291" height="224" viewBox="0 0 291 224" fill="none" xmlns="http://www.w3.org/2000/svg">
<g clip-path="url(#clip0_816_1082)">
<circle cx="145.5" cy="111.5" r="103.25" stroke="#3B3B3B" stroke-width="0.5"/>
<rect width="79" height="52" transform="translate(0 86)" fill="#F6F4F1"/>
<path d="M11.88 103.84H13.32V109.98H21.04V103.84H22.48V118H21.04V111.3H13.32V118H11.88V103.84ZM27.6755 118H26.2355V103.84H30.3955C31.0888 103.84 31.7288 103.907 32.3155 104.04C32.9155 104.173 33.4288 104.393 33.8555 104.7C34.2955 104.993 34.6355 105.38 34.8755 105.86C35.1155 106.34 35.2355 106.927 35.2355 107.62C35.2355 108.14 35.1421 108.613 34.9555 109.04C34.7688 109.467 34.5155 109.84 34.1955 110.16C33.8755 110.467 33.4955 110.713 33.0555 110.9C32.6155 111.087 32.1355 111.207 31.6155 111.26L35.7555 118H33.9955L30.0755 111.38H27.6755V118ZM27.6755 110.14H30.1755C31.3355 110.14 32.2288 109.933 32.8555 109.52C33.4821 109.093 33.7955 108.46 33.7955 107.62C33.7955 107.153 33.7088 106.76 33.5355 106.44C33.3621 106.12 33.1221 105.86 32.8155 105.66C32.5088 105.46 32.1355 105.313 31.6955 105.22C31.2555 105.127 30.7688 105.08 30.2355 105.08H27.6755V110.14ZM38.2081 103.84H42.4281C42.9615 103.84 43.5015 103.9 44.0481 104.02C44.5948 104.127 45.0815 104.32 45.5081 104.6C45.9481 104.867 46.3015 105.233 46.5681 105.7C46.8481 106.167 46.9881 106.753 46.9881 107.46C46.9881 108.207 46.7615 108.86 46.3081 109.42C45.8548 109.967 45.2481 110.327 44.4881 110.5V110.54C45.4081 110.647 46.1681 111.007 46.7681 111.62C47.3815 112.22 47.6881 113.04 47.6881 114.08C47.6881 114.667 47.5615 115.207 47.3081 115.7C47.0681 116.18 46.7215 116.593 46.2681 116.94C45.8148 117.273 45.2615 117.533 44.6081 117.72C43.9548 117.907 43.2215 118 42.4081 118H38.2081V103.84ZM39.6481 110.04H42.5481C42.8948 110.04 43.2415 110 43.5881 109.92C43.9481 109.84 44.2748 109.707 44.5681 109.52C44.8615 109.32 45.0948 109.06 45.2681 108.74C45.4548 108.42 45.5481 108.027 45.5481 107.56C45.5481 107.107 45.4548 106.727 45.2681 106.42C45.0948 106.1 44.8548 105.84 44.5481 105.64C44.2415 105.44 43.8815 105.3 43.4681 105.22C43.0548 105.127 42.6148 105.08 42.1481 105.08H39.6481V110.04ZM39.6481 116.76H42.3281C42.8481 116.76 43.3415 116.713 43.8081 116.62C44.2881 116.513 44.7015 116.353 45.0481 116.14C45.4081 115.913 45.6948 115.627 45.9081 115.28C46.1215 114.92 46.2281 114.493 46.2281 114C46.2281 113.067 45.9081 112.373 45.2681 111.92C44.6415 111.453 43.7481 111.22 42.5881 111.22H39.6481V116.76ZM50.923 103.84H54.923C55.643 103.84 56.2963 103.92 56.883 104.08C57.4696 104.227 57.9696 104.46 58.383 104.78C58.8096 105.087 59.1363 105.48 59.363 105.96C59.5896 106.427 59.703 106.98 59.703 107.62C59.703 108.26 59.583 108.82 59.343 109.3C59.1163 109.767 58.7896 110.16 58.363 110.48C57.9496 110.787 57.443 111.02 56.843 111.18C56.2563 111.34 55.603 111.42 54.883 111.42H52.363V118H50.923V103.84ZM52.363 110.2H54.803C55.9363 110.2 56.7963 109.98 57.383 109.54C57.9696 109.1 58.263 108.46 58.263 107.62C58.263 106.74 57.9563 106.1 57.343 105.7C56.743 105.287 55.8963 105.08 54.803 105.08H52.363V110.2ZM66.4675 110.86C66.2675 110.473 65.9608 110.16 65.5475 109.92C65.1475 109.667 64.6875 109.54 64.1675 109.54C63.9275 109.54 63.6875 109.567 63.4475 109.62C63.2075 109.673 62.9942 109.76 62.8075 109.88C62.6208 110 62.4675 110.153 62.3475 110.34C62.2408 110.527 62.1875 110.747 62.1875 111C62.1875 111.44 62.3675 111.78 62.7275 112.02C63.0875 112.247 63.6542 112.44 64.4275 112.6C65.5342 112.827 66.3475 113.16 66.8675 113.6C67.4008 114.027 67.6675 114.607 67.6675 115.34C67.6675 115.873 67.5608 116.327 67.3475 116.7C67.1475 117.06 66.8808 117.36 66.5475 117.6C66.2142 117.827 65.8342 117.987 65.4075 118.08C64.9942 118.187 64.5742 118.24 64.1475 118.24C63.4408 118.24 62.7542 118.093 62.0875 117.8C61.4208 117.507 60.8742 117.047 60.4475 116.42L61.5275 115.62C61.7675 116.033 62.1208 116.38 62.5875 116.66C63.0542 116.94 63.5675 117.08 64.1275 117.08C64.4208 117.08 64.7008 117.053 64.9675 117C65.2342 116.947 65.4675 116.853 65.6675 116.72C65.8675 116.587 66.0275 116.42 66.1475 116.22C66.2675 116.007 66.3275 115.747 66.3275 115.44C66.3275 114.947 66.0875 114.58 65.6075 114.34C65.1408 114.087 64.4608 113.853 63.5675 113.64C63.2875 113.573 62.9875 113.493 62.6675 113.4C62.3608 113.293 62.0742 113.147 61.8075 112.96C61.5408 112.76 61.3208 112.513 61.1475 112.22C60.9742 111.927 60.8875 111.56 60.8875 111.12C60.8875 110.64 60.9808 110.233 61.1675 109.9C61.3542 109.553 61.6008 109.273 61.9075 109.06C62.2275 108.833 62.5875 108.667 62.9875 108.56C63.3875 108.453 63.8008 108.4 64.2275 108.4C64.8808 108.4 65.5142 108.547 66.1275 108.84C66.7408 109.133 67.2008 109.547 67.5075 110.08L66.4675 110.86Z" fill="#3B3B3B"/>
<rect width="92" height="52" transform="translate(199 86)" fill="#F6F4F1"/>
<path d="M212.32 118H210.88V103.84H219.42V105.12H212.32V110.04H218.92V111.3H212.32V118ZM223.059 118H221.699V108.64H223.059V118ZM223.339 105.04C223.339 105.32 223.239 105.553 223.039 105.74C222.839 105.913 222.619 106 222.379 106C222.139 106 221.919 105.913 221.719 105.74C221.519 105.553 221.419 105.32 221.419 105.04C221.419 104.76 221.519 104.533 221.719 104.36C221.919 104.173 222.139 104.08 222.379 104.08C222.619 104.08 222.839 104.173 223.039 104.36C223.239 104.533 223.339 104.76 223.339 105.04ZM227.899 108.64C227.926 108.893 227.946 109.173 227.959 109.48C227.972 109.787 227.979 110.04 227.979 110.24H228.019C228.286 109.693 228.719 109.253 229.319 108.92C229.919 108.573 230.552 108.4 231.219 108.4C232.406 108.4 233.292 108.753 233.879 109.46C234.479 110.167 234.779 111.1 234.779 112.26V118H233.419V112.82C233.419 112.327 233.379 111.88 233.299 111.48C233.219 111.08 233.079 110.74 232.879 110.46C232.692 110.167 232.432 109.94 232.099 109.78C231.779 109.62 231.372 109.54 230.879 109.54C230.519 109.54 230.166 109.613 229.819 109.76C229.486 109.907 229.186 110.133 228.919 110.44C228.652 110.733 228.439 111.113 228.279 111.58C228.119 112.033 228.039 112.573 228.039 113.2V118H226.679V110.7C226.679 110.447 226.672 110.12 226.659 109.72C226.646 109.32 226.626 108.96 226.599 108.64H227.899ZM244.2 111.96C244.2 111.147 243.987 110.54 243.56 110.14C243.133 109.74 242.513 109.54 241.7 109.54C241.14 109.54 240.62 109.64 240.14 109.84C239.66 110.04 239.253 110.307 238.92 110.64L238.16 109.74C238.547 109.353 239.053 109.033 239.68 108.78C240.32 108.527 241.04 108.4 241.84 108.4C242.347 108.4 242.82 108.473 243.26 108.62C243.7 108.753 244.087 108.96 244.42 109.24C244.753 109.52 245.013 109.873 245.2 110.3C245.387 110.727 245.48 111.227 245.48 111.8V115.9C245.48 116.26 245.493 116.633 245.52 117.02C245.547 117.407 245.587 117.733 245.64 118H244.42C244.38 117.773 244.347 117.527 244.32 117.26C244.293 116.993 244.28 116.733 244.28 116.48H244.24C243.813 117.107 243.327 117.56 242.78 117.84C242.247 118.107 241.6 118.24 240.84 118.24C240.48 118.24 240.107 118.187 239.72 118.08C239.347 117.987 239 117.827 238.68 117.6C238.373 117.373 238.113 117.08 237.9 116.72C237.7 116.36 237.6 115.92 237.6 115.4C237.6 114.68 237.78 114.113 238.14 113.7C238.513 113.273 239.007 112.96 239.62 112.76C240.233 112.547 240.933 112.413 241.72 112.36C242.52 112.293 243.347 112.26 244.2 112.26V111.96ZM243.8 113.32C243.24 113.32 242.673 113.347 242.1 113.4C241.54 113.44 241.027 113.533 240.56 113.68C240.107 113.813 239.733 114.013 239.44 114.28C239.147 114.547 239 114.9 239 115.34C239 115.673 239.06 115.953 239.18 116.18C239.313 116.407 239.487 116.593 239.7 116.74C239.913 116.873 240.147 116.973 240.4 117.04C240.667 117.093 240.933 117.12 241.2 117.12C241.68 117.12 242.107 117.04 242.48 116.88C242.853 116.707 243.167 116.48 243.42 116.2C243.673 115.907 243.867 115.573 244 115.2C244.133 114.827 244.2 114.433 244.2 114.02V113.32H243.8ZM250.204 108.64C250.23 108.893 250.25 109.173 250.264 109.48C250.277 109.787 250.284 110.04 250.284 110.24H250.324C250.59 109.693 251.024 109.253 251.624 108.92C252.224 108.573 252.857 108.4 253.524 108.4C254.71 108.4 255.597 108.753 256.184 109.46C256.784 110.167 257.084 111.1 257.084 112.26V118H255.724V112.82C255.724 112.327 255.684 111.88 255.604 111.48C255.524 111.08 255.384 110.74 255.184 110.46C254.997 110.167 254.737 109.94 254.404 109.78C254.084 109.62 253.677 109.54 253.184 109.54C252.824 109.54 252.47 109.613 252.124 109.76C251.79 109.907 251.49 110.133 251.224 110.44C250.957 110.733 250.744 111.113 250.584 111.58C250.424 112.033 250.344 112.573 250.344 113.2V118H248.984V110.7C248.984 110.447 248.977 110.12 248.964 109.72C248.95 109.32 248.93 108.96 248.904 108.64H250.204ZM267.345 110.78C267.118 110.42 266.785 110.127 266.345 109.9C265.918 109.66 265.451 109.54 264.945 109.54C264.398 109.54 263.905 109.64 263.465 109.84C263.025 110.027 262.645 110.293 262.325 110.64C262.018 110.973 261.778 111.373 261.605 111.84C261.445 112.293 261.365 112.787 261.365 113.32C261.365 113.853 261.445 114.347 261.605 114.8C261.778 115.253 262.018 115.653 262.325 116C262.631 116.333 263.005 116.6 263.445 116.8C263.885 116.987 264.378 117.08 264.925 117.08C265.525 117.08 266.031 116.967 266.445 116.74C266.858 116.513 267.198 116.22 267.465 115.86L268.485 116.62C268.085 117.113 267.591 117.507 267.005 117.8C266.431 118.093 265.738 118.24 264.925 118.24C264.165 118.24 263.478 118.12 262.865 117.88C262.251 117.627 261.725 117.28 261.285 116.84C260.858 116.4 260.525 115.88 260.285 115.28C260.045 114.68 259.925 114.027 259.925 113.32C259.925 112.613 260.045 111.96 260.285 111.36C260.525 110.76 260.858 110.24 261.285 109.8C261.725 109.36 262.251 109.02 262.865 108.78C263.478 108.527 264.165 108.4 264.925 108.4C265.551 108.4 266.185 108.54 266.825 108.82C267.478 109.087 268.005 109.487 268.405 110.02L267.345 110.78ZM277.745 112.6C277.705 111.72 277.418 110.993 276.885 110.42C276.365 109.833 275.618 109.54 274.645 109.54C274.191 109.54 273.771 109.627 273.385 109.8C272.998 109.96 272.658 110.187 272.365 110.48C272.071 110.76 271.838 111.087 271.665 111.46C271.491 111.82 271.391 112.2 271.365 112.6H277.745ZM279.125 113.04C279.125 113.133 279.125 113.233 279.125 113.34C279.125 113.447 279.118 113.56 279.105 113.68H271.345C271.358 114.147 271.451 114.587 271.625 115C271.798 115.413 272.038 115.773 272.345 116.08C272.651 116.387 273.011 116.633 273.425 116.82C273.838 116.993 274.285 117.08 274.765 117.08C275.471 117.08 276.078 116.92 276.585 116.6C277.105 116.267 277.498 115.887 277.765 115.46L278.785 116.26C278.225 116.967 277.605 117.473 276.925 117.78C276.258 118.087 275.538 118.24 274.765 118.24C274.071 118.24 273.425 118.12 272.825 117.88C272.238 117.627 271.731 117.28 271.305 116.84C270.878 116.4 270.538 115.88 270.285 115.28C270.045 114.68 269.925 114.027 269.925 113.32C269.925 112.613 270.045 111.96 270.285 111.36C270.525 110.76 270.858 110.24 271.285 109.8C271.711 109.36 272.211 109.02 272.785 108.78C273.358 108.527 273.978 108.4 274.645 108.4C275.378 108.4 276.025 108.527 276.585 108.78C277.145 109.02 277.611 109.353 277.985 109.78C278.358 110.193 278.638 110.68 278.825 111.24C279.025 111.8 279.125 112.4 279.125 113.04Z" fill="#3B3B3B"/>
<rect width="110" height="52" transform="translate(90)" fill="#F6F4F1"/>
<path d="M101.88 17.84H106.1C106.633 17.84 107.173 17.9 107.72 18.02C108.267 18.1267 108.753 18.32 109.18 18.6C109.62 18.8667 109.973 19.2333 110.24 19.7C110.52 20.1667 110.66 20.7533 110.66 21.46C110.66 22.2067 110.433 22.86 109.98 23.42C109.527 23.9667 108.92 24.3267 108.16 24.5V24.54C109.08 24.6467 109.84 25.0067 110.44 25.62C111.053 26.22 111.36 27.04 111.36 28.08C111.36 28.6667 111.233 29.2067 110.98 29.7C110.74 30.18 110.393 30.5933 109.94 30.94C109.487 31.2733 108.933 31.5333 108.28 31.72C107.627 31.9067 106.893 32 106.08 32H101.88V17.84ZM103.32 24.04H106.22C106.567 24.04 106.913 24 107.26 23.92C107.62 23.84 107.947 23.7067 108.24 23.52C108.533 23.32 108.767 23.06 108.94 22.74C109.127 22.42 109.22 22.0267 109.22 21.56C109.22 21.1067 109.127 20.7267 108.94 20.42C108.767 20.1 108.527 19.84 108.22 19.64C107.913 19.44 107.553 19.3 107.14 19.22C106.727 19.1267 106.287 19.08 105.82 19.08H103.32V24.04ZM103.32 30.76H106C106.52 30.76 107.013 30.7133 107.48 30.62C107.96 30.5133 108.373 30.3533 108.72 30.14C109.08 29.9133 109.367 29.6267 109.58 29.28C109.793 28.92 109.9 28.4933 109.9 28C109.9 27.0667 109.58 26.3733 108.94 25.92C108.313 25.4533 107.42 25.22 106.26 25.22H103.32V30.76ZM119.815 32.36C118.748 32.36 117.875 32.18 117.195 31.82C116.515 31.4467 115.975 30.98 115.575 30.42C115.175 29.86 114.895 29.2533 114.735 28.6C114.588 27.9333 114.515 27.3067 114.515 26.72V17.84H115.955V26.56C115.955 27.1333 116.022 27.6933 116.155 28.24C116.288 28.7733 116.502 29.2533 116.795 29.68C117.102 30.0933 117.502 30.4333 117.995 30.7C118.488 30.9533 119.095 31.08 119.815 31.08C120.535 31.08 121.142 30.9533 121.635 30.7C122.128 30.4333 122.522 30.0933 122.815 29.68C123.122 29.2533 123.342 28.7733 123.475 28.24C123.608 27.6933 123.675 27.1333 123.675 26.56V17.84H125.115V26.72C125.115 27.3067 125.035 27.9333 124.875 28.6C124.728 29.2533 124.455 29.86 124.055 30.42C123.655 30.98 123.108 31.4467 122.415 31.82C121.735 32.18 120.868 32.36 119.815 32.36ZM133.794 17.84H135.234V23.98H142.954V17.84H144.394V32H142.954V25.3H135.234V32H133.794V17.84ZM155.21 26.6C155.17 25.72 154.883 24.9933 154.35 24.42C153.83 23.8333 153.083 23.54 152.11 23.54C151.656 23.54 151.236 23.6267 150.85 23.8C150.463 23.96 150.123 24.1867 149.83 24.48C149.536 24.76 149.303 25.0867 149.13 25.46C148.956 25.82 148.856 26.2 148.83 26.6H155.21ZM156.59 27.04C156.59 27.1333 156.59 27.2333 156.59 27.34C156.59 27.4467 156.583 27.56 156.57 27.68H148.81C148.823 28.1467 148.916 28.5867 149.09 29C149.263 29.4133 149.503 29.7733 149.81 30.08C150.116 30.3867 150.476 30.6333 150.89 30.82C151.303 30.9933 151.75 31.08 152.23 31.08C152.936 31.08 153.543 30.92 154.05 30.6C154.57 30.2667 154.963 29.8867 155.23 29.46L156.25 30.26C155.69 30.9667 155.07 31.4733 154.39 31.78C153.723 32.0867 153.003 32.24 152.23 32.24C151.536 32.24 150.89 32.12 150.29 31.88C149.703 31.6267 149.196 31.28 148.77 30.84C148.343 30.4 148.003 29.88 147.75 29.28C147.51 28.68 147.39 28.0267 147.39 27.32C147.39 26.6133 147.51 25.96 147.75 25.36C147.99 24.76 148.323 24.24 148.75 23.8C149.176 23.36 149.676 23.02 150.25 22.78C150.823 22.5267 151.443 22.4 152.11 22.4C152.843 22.4 153.49 22.5267 154.05 22.78C154.61 23.02 155.076 23.3533 155.45 23.78C155.823 24.1933 156.103 24.68 156.29 25.24C156.49 25.8 156.59 26.4 156.59 27.04ZM165.298 25.96C165.298 25.1467 165.084 24.54 164.658 24.14C164.231 23.74 163.611 23.54 162.798 23.54C162.238 23.54 161.718 23.64 161.238 23.84C160.758 24.04 160.351 24.3067 160.018 24.64L159.258 23.74C159.644 23.3533 160.151 23.0333 160.778 22.78C161.418 22.5267 162.138 22.4 162.938 22.4C163.444 22.4 163.918 22.4733 164.358 22.62C164.798 22.7533 165.184 22.96 165.518 23.24C165.851 23.52 166.111 23.8733 166.298 24.3C166.484 24.7267 166.578 25.2267 166.578 25.8V29.9C166.578 30.26 166.591 30.6333 166.618 31.02C166.644 31.4067 166.684 31.7333 166.738 32H165.518C165.478 31.7733 165.444 31.5267 165.418 31.26C165.391 30.9933 165.378 30.7333 165.378 30.48H165.338C164.911 31.1067 164.424 31.56 163.878 31.84C163.344 32.1067 162.698 32.24 161.938 32.24C161.578 32.24 161.204 32.1867 160.818 32.08C160.444 31.9867 160.098 31.8267 159.778 31.6C159.471 31.3733 159.211 31.08 158.998 30.72C158.798 30.36 158.698 29.92 158.698 29.4C158.698 28.68 158.878 28.1133 159.238 27.7C159.611 27.2733 160.104 26.96 160.718 26.76C161.331 26.5467 162.031 26.4133 162.818 26.36C163.618 26.2933 164.444 26.26 165.298 26.26V25.96ZM164.898 27.32C164.338 27.32 163.771 27.3467 163.198 27.4C162.638 27.44 162.124 27.5333 161.658 27.68C161.204 27.8133 160.831 28.0133 160.538 28.28C160.244 28.5467 160.098 28.9 160.098 29.34C160.098 29.6733 160.158 29.9533 160.278 30.18C160.411 30.4067 160.584 30.5933 160.798 30.74C161.011 30.8733 161.244 30.9733 161.498 31.04C161.764 31.0933 162.031 31.12 162.298 31.12C162.778 31.12 163.204 31.04 163.578 30.88C163.951 30.7067 164.264 30.48 164.518 30.2C164.771 29.9067 164.964 29.5733 165.098 29.2C165.231 28.8267 165.298 28.4333 165.298 28.02V27.32H164.898ZM177.781 30.42C177.381 31.02 176.861 31.4733 176.221 31.78C175.581 32.0867 174.921 32.24 174.241 32.24C173.508 32.24 172.841 32.1133 172.241 31.86C171.655 31.6067 171.148 31.26 170.721 30.82C170.308 30.38 169.981 29.86 169.741 29.26C169.515 28.66 169.401 28.0133 169.401 27.32C169.401 26.6267 169.515 25.98 169.741 25.38C169.981 24.78 170.308 24.26 170.721 23.82C171.148 23.38 171.655 23.0333 172.241 22.78C172.841 22.5267 173.508 22.4 174.241 22.4C174.921 22.4 175.581 22.56 176.221 22.88C176.861 23.1867 177.381 23.6467 177.781 24.26H177.821V16.88H179.181V32H177.821V30.42H177.781ZM170.841 27.32C170.841 27.84 170.921 28.3333 171.081 28.8C171.241 29.2533 171.468 29.6533 171.761 30C172.068 30.3333 172.441 30.6 172.881 30.8C173.321 30.9867 173.821 31.08 174.381 31.08C174.901 31.08 175.381 30.9867 175.821 30.8C176.261 30.6 176.641 30.3333 176.961 30C177.281 29.6667 177.528 29.2733 177.701 28.82C177.888 28.3533 177.981 27.8533 177.981 27.32C177.981 26.7867 177.888 26.2933 177.701 25.84C177.528 25.3733 177.281 24.9733 176.961 24.64C176.641 24.2933 176.261 24.0267 175.821 23.84C175.381 23.64 174.901 23.54 174.381 23.54C173.821 23.54 173.321 23.64 172.881 23.84C172.441 24.04 172.068 24.3133 171.761 24.66C171.468 24.9933 171.241 25.3933 171.081 25.86C170.921 26.3133 170.841 26.8 170.841 27.32ZM187.796 24.86C187.596 24.4733 187.289 24.16 186.876 23.92C186.476 23.6667 186.016 23.54 185.496 23.54C185.256 23.54 185.016 23.5667 184.776 23.62C184.536 23.6733 184.322 23.76 184.136 23.88C183.949 24 183.796 24.1533 183.676 24.34C183.569 24.5267 183.516 24.7467 183.516 25C183.516 25.44 183.696 25.78 184.056 26.02C184.416 26.2467 184.982 26.44 185.756 26.6C186.862 26.8267 187.676 27.16 188.196 27.6C188.729 28.0267 188.996 28.6067 188.996 29.34C188.996 29.8733 188.889 30.3267 188.676 30.7C188.476 31.06 188.209 31.36 187.876 31.6C187.542 31.8267 187.162 31.9867 186.736 32.08C186.322 32.1867 185.902 32.24 185.476 32.24C184.769 32.24 184.082 32.0933 183.416 31.8C182.749 31.5067 182.202 31.0467 181.776 30.42L182.856 29.62C183.096 30.0333 183.449 30.38 183.916 30.66C184.382 30.94 184.896 31.08 185.456 31.08C185.749 31.08 186.029 31.0533 186.296 31C186.562 30.9467 186.796 30.8533 186.996 30.72C187.196 30.5867 187.356 30.42 187.476 30.22C187.596 30.0067 187.656 29.7467 187.656 29.44C187.656 28.9467 187.416 28.58 186.936 28.34C186.469 28.0867 185.789 27.8533 184.896 27.64C184.616 27.5733 184.316 27.4933 183.996 27.4C183.689 27.2933 183.402 27.1467 183.136 26.96C182.869 26.76 182.649 26.5133 182.476 26.22C182.302 25.9267 182.216 25.56 182.216 25.12C182.216 24.64 182.309 24.2333 182.496 23.9C182.682 23.5533 182.929 23.2733 183.236 23.06C183.556 22.8333 183.916 22.6667 184.316 22.56C184.716 22.4533 185.129 22.4 185.556 22.4C186.209 22.4 186.842 22.5467 187.456 22.84C188.069 23.1333 188.529 23.5467 188.836 24.08L187.796 24.86Z" fill="#3B3B3B"/>
<rect width="122" height="52" transform="translate(84 172)" fill="#F6F4F1"/>
<path d="M97.32 202.72H103.92V204H95.88V189.84H97.32V202.72ZM112.784 198.6C112.744 197.72 112.457 196.993 111.924 196.42C111.404 195.833 110.657 195.54 109.684 195.54C109.23 195.54 108.81 195.627 108.424 195.8C108.037 195.96 107.697 196.187 107.404 196.48C107.11 196.76 106.877 197.087 106.704 197.46C106.53 197.82 106.43 198.2 106.404 198.6H112.784ZM114.164 199.04C114.164 199.133 114.164 199.233 114.164 199.34C114.164 199.447 114.157 199.56 114.144 199.68H106.384C106.397 200.147 106.49 200.587 106.664 201C106.837 201.413 107.077 201.773 107.384 202.08C107.69 202.387 108.05 202.633 108.464 202.82C108.877 202.993 109.324 203.08 109.804 203.08C110.51 203.08 111.117 202.92 111.624 202.6C112.144 202.267 112.537 201.887 112.804 201.46L113.824 202.26C113.264 202.967 112.644 203.473 111.964 203.78C111.297 204.087 110.577 204.24 109.804 204.24C109.11 204.24 108.464 204.12 107.864 203.88C107.277 203.627 106.77 203.28 106.344 202.84C105.917 202.4 105.577 201.88 105.324 201.28C105.084 200.68 104.964 200.027 104.964 199.32C104.964 198.613 105.084 197.96 105.324 197.36C105.564 196.76 105.897 196.24 106.324 195.8C106.75 195.36 107.25 195.02 107.824 194.78C108.397 194.527 109.017 194.4 109.684 194.4C110.417 194.4 111.064 194.527 111.624 194.78C112.184 195.02 112.65 195.353 113.024 195.78C113.397 196.193 113.677 196.68 113.864 197.24C114.064 197.8 114.164 198.4 114.164 199.04ZM122.872 197.96C122.872 197.147 122.659 196.54 122.232 196.14C121.805 195.74 121.185 195.54 120.372 195.54C119.812 195.54 119.292 195.64 118.812 195.84C118.332 196.04 117.925 196.307 117.592 196.64L116.832 195.74C117.219 195.353 117.725 195.033 118.352 194.78C118.992 194.527 119.712 194.4 120.512 194.4C121.019 194.4 121.492 194.473 121.932 194.62C122.372 194.753 122.759 194.96 123.092 195.24C123.425 195.52 123.685 195.873 123.872 196.3C124.059 196.727 124.152 197.227 124.152 197.8V201.9C124.152 202.26 124.165 202.633 124.192 203.02C124.219 203.407 124.259 203.733 124.312 204H123.092C123.052 203.773 123.019 203.527 122.992 203.26C122.965 202.993 122.952 202.733 122.952 202.48H122.912C122.485 203.107 121.999 203.56 121.452 203.84C120.919 204.107 120.272 204.24 119.512 204.24C119.152 204.24 118.779 204.187 118.392 204.08C118.019 203.987 117.672 203.827 117.352 203.6C117.045 203.373 116.785 203.08 116.572 202.72C116.372 202.36 116.272 201.92 116.272 201.4C116.272 200.68 116.452 200.113 116.812 199.7C117.185 199.273 117.679 198.96 118.292 198.76C118.905 198.547 119.605 198.413 120.392 198.36C121.192 198.293 122.019 198.26 122.872 198.26V197.96ZM122.472 199.32C121.912 199.32 121.345 199.347 120.772 199.4C120.212 199.44 119.699 199.533 119.232 199.68C118.779 199.813 118.405 200.013 118.112 200.28C117.819 200.547 117.672 200.9 117.672 201.34C117.672 201.673 117.732 201.953 117.852 202.18C117.985 202.407 118.159 202.593 118.372 202.74C118.585 202.873 118.819 202.973 119.072 203.04C119.339 203.093 119.605 203.12 119.872 203.12C120.352 203.12 120.779 203.04 121.152 202.88C121.525 202.707 121.839 202.48 122.092 202.2C122.345 201.907 122.539 201.573 122.672 201.2C122.805 200.827 122.872 200.433 122.872 200.02V199.32H122.472ZM135.355 202.42C134.955 203.02 134.435 203.473 133.795 203.78C133.155 204.087 132.495 204.24 131.815 204.24C131.082 204.24 130.415 204.113 129.815 203.86C129.229 203.607 128.722 203.26 128.295 202.82C127.882 202.38 127.555 201.86 127.315 201.26C127.089 200.66 126.975 200.013 126.975 199.32C126.975 198.627 127.089 197.98 127.315 197.38C127.555 196.78 127.882 196.26 128.295 195.82C128.722 195.38 129.229 195.033 129.815 194.78C130.415 194.527 131.082 194.4 131.815 194.4C132.495 194.4 133.155 194.56 133.795 194.88C134.435 195.187 134.955 195.647 135.355 196.26H135.395V188.88H136.755V204H135.395V202.42H135.355ZM128.415 199.32C128.415 199.84 128.495 200.333 128.655 200.8C128.815 201.253 129.042 201.653 129.335 202C129.642 202.333 130.015 202.6 130.455 202.8C130.895 202.987 131.395 203.08 131.955 203.08C132.475 203.08 132.955 202.987 133.395 202.8C133.835 202.6 134.215 202.333 134.535 202C134.855 201.667 135.102 201.273 135.275 200.82C135.462 200.353 135.555 199.853 135.555 199.32C135.555 198.787 135.462 198.293 135.275 197.84C135.102 197.373 134.855 196.973 134.535 196.64C134.215 196.293 133.835 196.027 133.395 195.84C132.955 195.64 132.475 195.54 131.955 195.54C131.395 195.54 130.895 195.64 130.455 195.84C130.015 196.04 129.642 196.313 129.335 196.66C129.042 196.993 128.815 197.393 128.655 197.86C128.495 198.313 128.415 198.8 128.415 199.32ZM147.53 198.6C147.49 197.72 147.203 196.993 146.67 196.42C146.15 195.833 145.403 195.54 144.43 195.54C143.977 195.54 143.557 195.627 143.17 195.8C142.783 195.96 142.443 196.187 142.15 196.48C141.857 196.76 141.623 197.087 141.45 197.46C141.277 197.82 141.177 198.2 141.15 198.6H147.53ZM148.91 199.04C148.91 199.133 148.91 199.233 148.91 199.34C148.91 199.447 148.903 199.56 148.89 199.68H141.13C141.143 200.147 141.237 200.587 141.41 201C141.583 201.413 141.823 201.773 142.13 202.08C142.437 202.387 142.797 202.633 143.21 202.82C143.623 202.993 144.07 203.08 144.55 203.08C145.257 203.08 145.863 202.92 146.37 202.6C146.89 202.267 147.283 201.887 147.55 201.46L148.57 202.26C148.01 202.967 147.39 203.473 146.71 203.78C146.043 204.087 145.323 204.24 144.55 204.24C143.857 204.24 143.21 204.12 142.61 203.88C142.023 203.627 141.517 203.28 141.09 202.84C140.663 202.4 140.323 201.88 140.07 201.28C139.83 200.68 139.71 200.027 139.71 199.32C139.71 198.613 139.83 197.96 140.07 197.36C140.31 196.76 140.643 196.24 141.07 195.8C141.497 195.36 141.997 195.02 142.57 194.78C143.143 194.527 143.763 194.4 144.43 194.4C145.163 194.4 145.81 194.527 146.37 194.78C146.93 195.02 147.397 195.353 147.77 195.78C148.143 196.193 148.423 196.68 148.61 197.24C148.81 197.8 148.91 198.4 148.91 199.04ZM151.835 196.7C151.835 196.447 151.828 196.12 151.815 195.72C151.802 195.32 151.782 194.96 151.755 194.64H153.055C153.082 194.893 153.102 195.173 153.115 195.48C153.128 195.787 153.135 196.04 153.135 196.24H153.175C153.442 195.693 153.842 195.253 154.375 194.92C154.908 194.573 155.508 194.4 156.175 194.4C156.348 194.4 156.502 194.407 156.635 194.42C156.782 194.433 156.928 194.46 157.075 194.5L156.895 195.78C156.815 195.753 156.682 195.727 156.495 195.7C156.308 195.673 156.122 195.66 155.935 195.66C155.575 195.66 155.228 195.727 154.895 195.86C154.562 195.993 154.268 196.207 154.015 196.5C153.775 196.78 153.575 197.147 153.415 197.6C153.268 198.04 153.195 198.573 153.195 199.2V204H151.835V196.7ZM164.022 196.86C163.822 196.473 163.516 196.16 163.102 195.92C162.702 195.667 162.242 195.54 161.722 195.54C161.482 195.54 161.242 195.567 161.002 195.62C160.762 195.673 160.549 195.76 160.362 195.88C160.176 196 160.022 196.153 159.902 196.34C159.796 196.527 159.742 196.747 159.742 197C159.742 197.44 159.922 197.78 160.282 198.02C160.642 198.247 161.209 198.44 161.982 198.6C163.089 198.827 163.902 199.16 164.422 199.6C164.956 200.027 165.222 200.607 165.222 201.34C165.222 201.873 165.116 202.327 164.902 202.7C164.702 203.06 164.436 203.36 164.102 203.6C163.769 203.827 163.389 203.987 162.962 204.08C162.549 204.187 162.129 204.24 161.702 204.24C160.996 204.24 160.309 204.093 159.642 203.8C158.976 203.507 158.429 203.047 158.002 202.42L159.082 201.62C159.322 202.033 159.676 202.38 160.142 202.66C160.609 202.94 161.122 203.08 161.682 203.08C161.976 203.08 162.256 203.053 162.522 203C162.789 202.947 163.022 202.853 163.222 202.72C163.422 202.587 163.582 202.42 163.702 202.22C163.822 202.007 163.882 201.747 163.882 201.44C163.882 200.947 163.642 200.58 163.162 200.34C162.696 200.087 162.016 199.853 161.122 199.64C160.842 199.573 160.542 199.493 160.222 199.4C159.916 199.293 159.629 199.147 159.362 198.96C159.096 198.76 158.876 198.513 158.702 198.22C158.529 197.927 158.442 197.56 158.442 197.12C158.442 196.64 158.536 196.233 158.722 195.9C158.909 195.553 159.156 195.273 159.462 195.06C159.782 194.833 160.142 194.667 160.542 194.56C160.942 194.453 161.356 194.4 161.782 194.4C162.436 194.4 163.069 194.547 163.682 194.84C164.296 195.133 164.756 195.547 165.062 196.08L164.022 196.86ZM169.369 196.18C169.622 195.633 170.042 195.2 170.629 194.88C171.216 194.56 171.842 194.4 172.509 194.4C173.696 194.4 174.582 194.753 175.169 195.46C175.769 196.167 176.069 197.1 176.069 198.26V204H174.709V198.82C174.709 198.327 174.669 197.88 174.589 197.48C174.509 197.08 174.369 196.74 174.169 196.46C173.982 196.167 173.722 195.94 173.389 195.78C173.069 195.62 172.662 195.54 172.169 195.54C171.809 195.54 171.456 195.613 171.109 195.76C170.776 195.907 170.476 196.133 170.209 196.44C169.942 196.733 169.729 197.113 169.569 197.58C169.409 198.033 169.329 198.573 169.329 199.2V204H167.969V188.88H169.329V196.18H169.369ZM180.969 204H179.609V194.64H180.969V204ZM181.249 191.04C181.249 191.32 181.149 191.553 180.949 191.74C180.749 191.913 180.529 192 180.289 192C180.049 192 179.829 191.913 179.629 191.74C179.429 191.553 179.329 191.32 179.329 191.04C179.329 190.76 179.429 190.533 179.629 190.36C179.829 190.173 180.049 190.08 180.289 190.08C180.529 190.08 180.749 190.173 180.949 190.36C181.149 190.533 181.249 190.76 181.249 191.04ZM185.949 208.8H184.589V194.64H185.949V196.26H186.009C186.396 195.647 186.909 195.187 187.549 194.88C188.202 194.56 188.862 194.4 189.529 194.4C190.262 194.4 190.922 194.527 191.509 194.78C192.109 195.033 192.616 195.38 193.029 195.82C193.456 196.26 193.782 196.78 194.009 197.38C194.249 197.98 194.369 198.627 194.369 199.32C194.369 200.013 194.249 200.66 194.009 201.26C193.782 201.86 193.456 202.38 193.029 202.82C192.616 203.26 192.109 203.607 191.509 203.86C190.922 204.113 190.262 204.24 189.529 204.24C188.862 204.24 188.202 204.087 187.549 203.78C186.909 203.46 186.396 203.007 186.009 202.42H185.949V208.8ZM192.929 199.32C192.929 198.8 192.849 198.313 192.689 197.86C192.529 197.393 192.296 196.993 191.989 196.66C191.696 196.313 191.329 196.04 190.889 195.84C190.449 195.64 189.949 195.54 189.389 195.54C188.869 195.54 188.389 195.64 187.949 195.84C187.509 196.027 187.129 196.293 186.809 196.64C186.489 196.973 186.236 197.373 186.049 197.84C185.876 198.293 185.789 198.787 185.789 199.32C185.789 199.853 185.876 200.353 186.049 200.82C186.236 201.273 186.489 201.667 186.809 202C187.129 202.333 187.509 202.6 187.949 202.8C188.389 202.987 188.869 203.08 189.389 203.08C189.949 203.08 190.449 202.987 190.889 202.8C191.329 202.6 191.696 202.333 191.989 202C192.296 201.653 192.529 201.253 192.689 200.8C192.849 200.333 192.929 199.84 192.929 199.32Z" fill="#3B3B3B"/>
</g>
<defs>
<clipPath id="clip0_816_1082">
<rect width="291" height="224" fill="white"/>
</clipPath>
</defs>
</svg>
