<svg width="792" height="52" viewBox="0 0 792 52" fill="none" xmlns="http://www.w3.org/2000/svg">
<rect width="198" height="52" fill="#F6F4F1"/>
<path d="M13.32 32H11.88V17.84H16.04C16.7333 17.84 17.3733 17.9067 17.96 18.04C18.56 18.1733 19.0733 18.3933 19.5 18.7C19.94 18.9933 20.28 19.38 20.52 19.86C20.76 20.34 20.88 20.9267 20.88 21.62C20.88 22.14 20.7867 22.6133 20.6 23.04C20.4133 23.4667 20.16 23.84 19.84 24.16C19.52 24.4667 19.14 24.7133 18.7 24.9C18.26 25.0867 17.78 25.2067 17.26 25.26L21.4 32H19.64L15.72 25.38H13.32V32ZM13.32 24.14H15.82C16.98 24.14 17.8733 23.9333 18.5 23.52C19.1267 23.0933 19.44 22.46 19.44 21.62C19.44 21.1533 19.3533 20.76 19.18 20.44C19.0067 20.12 18.7667 19.86 18.46 19.66C18.1533 19.46 17.78 19.3133 17.34 19.22C16.9 19.1267 16.4133 19.08 15.88 19.08H13.32V24.14ZM30.6783 26.6C30.6383 25.72 30.3516 24.9933 29.8183 24.42C29.2983 23.8333 28.5516 23.54 27.5783 23.54C27.1249 23.54 26.7049 23.6267 26.3183 23.8C25.9316 23.96 25.5916 24.1867 25.2983 24.48C25.0049 24.76 24.7716 25.0867 24.5983 25.46C24.4249 25.82 24.3249 26.2 24.2983 26.6H30.6783ZM32.0583 27.04C32.0583 27.1333 32.0583 27.2333 32.0583 27.34C32.0583 27.4467 32.0516 27.56 32.0383 27.68H24.2783C24.2916 28.1467 24.3849 28.5867 24.5583 29C24.7316 29.4133 24.9716 29.7733 25.2783 30.08C25.5849 30.3867 25.9449 30.6333 26.3583 30.82C26.7716 30.9933 27.2183 31.08 27.6983 31.08C28.4049 31.08 29.0116 30.92 29.5183 30.6C30.0383 30.2667 30.4316 29.8867 30.6983 29.46L31.7183 30.26C31.1583 30.9667 30.5383 31.4733 29.8583 31.78C29.1916 32.0867 28.4716 32.24 27.6983 32.24C27.0049 32.24 26.3583 32.12 25.7583 31.88C25.1716 31.6267 24.6649 31.28 24.2383 30.84C23.8116 30.4 23.4716 29.88 23.2183 29.28C22.9783 28.68 22.8583 28.0267 22.8583 27.32C22.8583 26.6133 22.9783 25.96 23.2183 25.36C23.4583 24.76 23.7916 24.24 24.2183 23.8C24.6449 23.36 25.1449 23.02 25.7183 22.78C26.2916 22.5267 26.9116 22.4 27.5783 22.4C28.3116 22.4 28.9583 22.5267 29.5183 22.78C30.0783 23.02 30.5449 23.3533 30.9183 23.78C31.2916 24.1933 31.5716 24.68 31.7583 25.24C31.9583 25.8 32.0583 26.4 32.0583 27.04ZM36.3436 36.8H34.9836V22.64H36.3436V24.26H36.4036C36.7903 23.6467 37.3036 23.1867 37.9436 22.88C38.5969 22.56 39.2569 22.4 39.9236 22.4C40.6569 22.4 41.3169 22.5267 41.9036 22.78C42.5036 23.0333 43.0103 23.38 43.4236 23.82C43.8503 24.26 44.1769 24.78 44.4036 25.38C44.6436 25.98 44.7636 26.6267 44.7636 27.32C44.7636 28.0133 44.6436 28.66 44.4036 29.26C44.1769 29.86 43.8503 30.38 43.4236 30.82C43.0103 31.26 42.5036 31.6067 41.9036 31.86C41.3169 32.1133 40.6569 32.24 39.9236 32.24C39.2569 32.24 38.5969 32.0867 37.9436 31.78C37.3036 31.46 36.7903 31.0067 36.4036 30.42H36.3436V36.8ZM43.3236 27.32C43.3236 26.8 43.2436 26.3133 43.0836 25.86C42.9236 25.3933 42.6903 24.9933 42.3836 24.66C42.0903 24.3133 41.7236 24.04 41.2836 23.84C40.8436 23.64 40.3436 23.54 39.7836 23.54C39.2636 23.54 38.7836 23.64 38.3436 23.84C37.9036 24.0267 37.5236 24.2933 37.2036 24.64C36.8836 24.9733 36.6303 25.3733 36.4436 25.84C36.2703 26.2933 36.1836 26.7867 36.1836 27.32C36.1836 27.8533 36.2703 28.3533 36.4436 28.82C36.6303 29.2733 36.8836 29.6667 37.2036 30C37.5236 30.3333 37.9036 30.6 38.3436 30.8C38.7836 30.9867 39.2636 31.08 39.7836 31.08C40.3436 31.08 40.8436 30.9867 41.2836 30.8C41.7236 30.6 42.0903 30.3333 42.3836 30C42.6903 29.6533 42.9236 29.2533 43.0836 28.8C43.2436 28.3333 43.3236 27.84 43.3236 27.32ZM56.9789 27.32C56.9789 28.0267 56.8522 28.68 56.5989 29.28C56.3589 29.88 56.0189 30.4 55.5789 30.84C55.1389 31.28 54.6122 31.6267 53.9989 31.88C53.3856 32.12 52.7122 32.24 51.9789 32.24C51.2589 32.24 50.5922 32.12 49.9789 31.88C49.3656 31.6267 48.8389 31.28 48.3989 30.84C47.9589 30.4 47.6122 29.88 47.3589 29.28C47.1189 28.68 46.9989 28.0267 46.9989 27.32C46.9989 26.6133 47.1189 25.96 47.3589 25.36C47.6122 24.76 47.9589 24.24 48.3989 23.8C48.8389 23.36 49.3656 23.02 49.9789 22.78C50.5922 22.5267 51.2589 22.4 51.9789 22.4C52.7122 22.4 53.3856 22.5267 53.9989 22.78C54.6122 23.02 55.1389 23.36 55.5789 23.8C56.0189 24.24 56.3589 24.76 56.5989 25.36C56.8522 25.96 56.9789 26.6133 56.9789 27.32ZM55.5389 27.32C55.5389 26.8 55.4522 26.3133 55.2789 25.86C55.1189 25.3933 54.8856 24.9933 54.5789 24.66C54.2722 24.3133 53.8989 24.04 53.4589 23.84C53.0189 23.64 52.5256 23.54 51.9789 23.54C51.4322 23.54 50.9389 23.64 50.4989 23.84C50.0722 24.04 49.7056 24.3133 49.3989 24.66C49.0922 24.9933 48.8522 25.3933 48.6789 25.86C48.5189 26.3133 48.4389 26.8 48.4389 27.32C48.4389 27.84 48.5189 28.3333 48.6789 28.8C48.8522 29.2533 49.0922 29.6533 49.3989 30C49.7056 30.3333 50.0722 30.6 50.4989 30.8C50.9389 30.9867 51.4322 31.08 51.9789 31.08C52.5256 31.08 53.0189 30.9867 53.4589 30.8C53.8989 30.6 54.2722 30.3333 54.5789 30C54.8856 29.6533 55.1189 29.2533 55.2789 28.8C55.4522 28.3333 55.5389 27.84 55.5389 27.32ZM59.9055 24.7C59.9055 24.4467 59.8988 24.12 59.8855 23.72C59.8721 23.32 59.8521 22.96 59.8255 22.64H61.1255C61.1521 22.8933 61.1721 23.1733 61.1855 23.48C61.1988 23.7867 61.2055 24.04 61.2055 24.24H61.2455C61.5121 23.6933 61.9121 23.2533 62.4455 22.92C62.9788 22.5733 63.5788 22.4 64.2455 22.4C64.4188 22.4 64.5721 22.4067 64.7055 22.42C64.8521 22.4333 64.9988 22.46 65.1455 22.5L64.9655 23.78C64.8855 23.7533 64.7521 23.7267 64.5655 23.7C64.3788 23.6733 64.1921 23.66 64.0055 23.66C63.6455 23.66 63.2988 23.7267 62.9655 23.86C62.6321 23.9933 62.3388 24.2067 62.0855 24.5C61.8455 24.78 61.6455 25.1467 61.4855 25.6C61.3388 26.04 61.2655 26.5733 61.2655 27.2V32H59.9055V24.7ZM71.0981 23.78H68.4581V29.24C68.4581 29.5867 68.4915 29.8733 68.5581 30.1C68.6248 30.3267 68.7181 30.5067 68.8381 30.64C68.9715 30.76 69.1248 30.8467 69.2981 30.9C69.4715 30.94 69.6581 30.96 69.8581 30.96C70.0448 30.96 70.2381 30.9333 70.4381 30.88C70.6515 30.8267 70.8515 30.7533 71.0381 30.66L71.0981 31.84C70.8581 31.9333 70.6048 32 70.3381 32.04C70.0848 32.0933 69.8048 32.12 69.4981 32.12C69.2448 32.12 68.9781 32.0867 68.6981 32.02C68.4181 31.9533 68.1581 31.8267 67.9181 31.64C67.6781 31.4533 67.4781 31.2 67.3181 30.88C67.1715 30.56 67.0981 30.14 67.0981 29.62V23.78H65.1581V22.64H67.0981V20H68.4581V22.64H71.0981V23.78ZM74.6058 32H73.2458V22.64H74.6058V32ZM74.8858 19.04C74.8858 19.32 74.7858 19.5533 74.5858 19.74C74.3858 19.9133 74.1658 20 73.9258 20C73.6858 20 73.4658 19.9133 73.2658 19.74C73.0658 19.5533 72.9658 19.32 72.9658 19.04C72.9658 18.76 73.0658 18.5333 73.2658 18.36C73.4658 18.1733 73.6858 18.08 73.9258 18.08C74.1658 18.08 74.3858 18.1733 74.5858 18.36C74.7858 18.5333 74.8858 18.76 74.8858 19.04ZM79.4458 22.64C79.4724 22.8933 79.4924 23.1733 79.5058 23.48C79.5191 23.7867 79.5258 24.04 79.5258 24.24H79.5658C79.8324 23.6933 80.2658 23.2533 80.8658 22.92C81.4658 22.5733 82.0991 22.4 82.7658 22.4C83.9524 22.4 84.8391 22.7533 85.4258 23.46C86.0258 24.1667 86.3258 25.1 86.3258 26.26V32H84.9658V26.82C84.9658 26.3267 84.9258 25.88 84.8458 25.48C84.7658 25.08 84.6258 24.74 84.4258 24.46C84.2391 24.1667 83.9791 23.94 83.6458 23.78C83.3258 23.62 82.9191 23.54 82.4258 23.54C82.0658 23.54 81.7124 23.6133 81.3658 23.76C81.0324 23.9067 80.7324 24.1333 80.4658 24.44C80.1991 24.7333 79.9858 25.1133 79.8258 25.58C79.6658 26.0333 79.5858 26.5733 79.5858 27.2V32H78.2258V24.7C78.2258 24.4467 78.2191 24.12 78.2058 23.72C78.1924 23.32 78.1724 22.96 78.1458 22.64H79.4458ZM90.3469 33.88C90.7202 34.36 91.2269 34.7667 91.8669 35.1C92.5202 35.4333 93.2069 35.6 93.9269 35.6C94.5935 35.6 95.1602 35.5 95.6269 35.3C96.0935 35.1133 96.4669 34.8533 96.7469 34.52C97.0402 34.1867 97.2535 33.7933 97.3869 33.34C97.5202 32.9 97.5869 32.4267 97.5869 31.92V30.16H97.5469C97.1869 30.7467 96.6735 31.2 96.0069 31.52C95.3535 31.84 94.6869 32 94.0069 32C93.2735 32 92.6069 31.88 92.0069 31.64C91.4202 31.4 90.9135 31.0733 90.4869 30.66C90.0735 30.2333 89.7469 29.7267 89.5069 29.14C89.2802 28.5533 89.1669 27.92 89.1669 27.24C89.1669 26.5733 89.2802 25.9467 89.5069 25.36C89.7469 24.7733 90.0735 24.26 90.4869 23.82C90.9135 23.38 91.4202 23.0333 92.0069 22.78C92.6069 22.5267 93.2735 22.4 94.0069 22.4C94.6869 22.4 95.3535 22.56 96.0069 22.88C96.6602 23.2 97.1735 23.66 97.5469 24.26H97.5869V22.64H98.9469V31.92C98.9469 32.4267 98.8735 32.9667 98.7269 33.54C98.5935 34.1133 98.3335 34.64 97.9469 35.12C97.5735 35.6 97.0602 36 96.4069 36.32C95.7535 36.64 94.9069 36.8 93.8669 36.8C93.0002 36.8 92.1735 36.6333 91.3869 36.3C90.6002 35.9667 89.9269 35.5067 89.3669 34.92L90.3469 33.88ZM90.6069 27.2C90.6069 27.6933 90.6869 28.16 90.8469 28.6C91.0069 29.04 91.2335 29.4267 91.5269 29.76C91.8335 30.0933 92.2069 30.36 92.6469 30.56C93.0869 30.7467 93.5869 30.84 94.1469 30.84C94.6669 30.84 95.1469 30.7533 95.5869 30.58C96.0269 30.4067 96.4069 30.16 96.7269 29.84C97.0469 29.52 97.2935 29.14 97.4669 28.7C97.6535 28.2467 97.7469 27.7467 97.7469 27.2C97.7469 26.7067 97.6535 26.24 97.4669 25.8C97.2935 25.36 97.0469 24.9733 96.7269 24.64C96.4069 24.3067 96.0269 24.04 95.5869 23.84C95.1469 23.64 94.6669 23.54 94.1469 23.54C93.5869 23.54 93.0869 23.64 92.6469 23.84C92.2069 24.04 91.8335 24.3067 91.5269 24.64C91.2335 24.9733 91.0069 25.36 90.8469 25.8C90.6869 26.24 90.6069 26.7067 90.6069 27.2ZM114.564 29.56H114.584L119.324 17.84H121.524V32H120.084V19.7H120.044L114.924 32H114.164L109.044 19.7H109.004V32H107.564V17.84H109.764L114.564 29.56ZM131.098 25.96C131.098 25.1467 130.885 24.54 130.458 24.14C130.032 23.74 129.412 23.54 128.598 23.54C128.038 23.54 127.518 23.64 127.038 23.84C126.558 24.04 126.152 24.3067 125.818 24.64L125.058 23.74C125.445 23.3533 125.952 23.0333 126.578 22.78C127.218 22.5267 127.938 22.4 128.738 22.4C129.245 22.4 129.718 22.4733 130.158 22.62C130.598 22.7533 130.985 22.96 131.318 23.24C131.652 23.52 131.912 23.8733 132.098 24.3C132.285 24.7267 132.378 25.2267 132.378 25.8V29.9C132.378 30.26 132.392 30.6333 132.418 31.02C132.445 31.4067 132.485 31.7333 132.538 32H131.318C131.278 31.7733 131.245 31.5267 131.218 31.26C131.192 30.9933 131.178 30.7333 131.178 30.48H131.138C130.712 31.1067 130.225 31.56 129.678 31.84C129.145 32.1067 128.498 32.24 127.738 32.24C127.378 32.24 127.005 32.1867 126.618 32.08C126.245 31.9867 125.898 31.8267 125.578 31.6C125.272 31.3733 125.012 31.08 124.798 30.72C124.598 30.36 124.498 29.92 124.498 29.4C124.498 28.68 124.678 28.1133 125.038 27.7C125.412 27.2733 125.905 26.96 126.518 26.76C127.132 26.5467 127.832 26.4133 128.618 26.36C129.418 26.2933 130.245 26.26 131.098 26.26V25.96ZM130.698 27.32C130.138 27.32 129.572 27.3467 128.998 27.4C128.438 27.44 127.925 27.5333 127.458 27.68C127.005 27.8133 126.632 28.0133 126.338 28.28C126.045 28.5467 125.898 28.9 125.898 29.34C125.898 29.6733 125.958 29.9533 126.078 30.18C126.212 30.4067 126.385 30.5933 126.598 30.74C126.812 30.8733 127.045 30.9733 127.298 31.04C127.565 31.0933 127.832 31.12 128.098 31.12C128.578 31.12 129.005 31.04 129.378 30.88C129.752 30.7067 130.065 30.48 130.318 30.2C130.572 29.9067 130.765 29.5733 130.898 29.2C131.032 28.8267 131.098 28.4333 131.098 28.02V27.32H130.698ZM137.102 22.64C137.129 22.8933 137.149 23.1733 137.162 23.48C137.175 23.7867 137.182 24.04 137.182 24.24H137.222C137.489 23.6933 137.922 23.2533 138.522 22.92C139.122 22.5733 139.755 22.4 140.422 22.4C141.609 22.4 142.495 22.7533 143.082 23.46C143.682 24.1667 143.982 25.1 143.982 26.26V32H142.622V26.82C142.622 26.3267 142.582 25.88 142.502 25.48C142.422 25.08 142.282 24.74 142.082 24.46C141.895 24.1667 141.635 23.94 141.302 23.78C140.982 23.62 140.575 23.54 140.082 23.54C139.722 23.54 139.369 23.6133 139.022 23.76C138.689 23.9067 138.389 24.1333 138.122 24.44C137.855 24.7333 137.642 25.1133 137.482 25.58C137.322 26.0333 137.242 26.5733 137.242 27.2V32H135.882V24.7C135.882 24.4467 135.875 24.12 135.862 23.72C135.849 23.32 135.829 22.96 135.802 22.64H137.102ZM153.403 25.96C153.403 25.1467 153.19 24.54 152.763 24.14C152.336 23.74 151.716 23.54 150.903 23.54C150.343 23.54 149.823 23.64 149.343 23.84C148.863 24.04 148.456 24.3067 148.123 24.64L147.363 23.74C147.75 23.3533 148.256 23.0333 148.883 22.78C149.523 22.5267 150.243 22.4 151.043 22.4C151.55 22.4 152.023 22.4733 152.463 22.62C152.903 22.7533 153.29 22.96 153.623 23.24C153.956 23.52 154.216 23.8733 154.403 24.3C154.59 24.7267 154.683 25.2267 154.683 25.8V29.9C154.683 30.26 154.696 30.6333 154.723 31.02C154.75 31.4067 154.79 31.7333 154.843 32H153.623C153.583 31.7733 153.55 31.5267 153.523 31.26C153.496 30.9933 153.483 30.7333 153.483 30.48H153.443C153.016 31.1067 152.53 31.56 151.983 31.84C151.45 32.1067 150.803 32.24 150.043 32.24C149.683 32.24 149.31 32.1867 148.923 32.08C148.55 31.9867 148.203 31.8267 147.883 31.6C147.576 31.3733 147.316 31.08 147.103 30.72C146.903 30.36 146.803 29.92 146.803 29.4C146.803 28.68 146.983 28.1133 147.343 27.7C147.716 27.2733 148.21 26.96 148.823 26.76C149.436 26.5467 150.136 26.4133 150.923 26.36C151.723 26.2933 152.55 26.26 153.403 26.26V25.96ZM153.003 27.32C152.443 27.32 151.876 27.3467 151.303 27.4C150.743 27.44 150.23 27.5333 149.763 27.68C149.31 27.8133 148.936 28.0133 148.643 28.28C148.35 28.5467 148.203 28.9 148.203 29.34C148.203 29.6733 148.263 29.9533 148.383 30.18C148.516 30.4067 148.69 30.5933 148.903 30.74C149.116 30.8733 149.35 30.9733 149.603 31.04C149.87 31.0933 150.136 31.12 150.403 31.12C150.883 31.12 151.31 31.04 151.683 30.88C152.056 30.7067 152.37 30.48 152.623 30.2C152.876 29.9067 153.07 29.5733 153.203 29.2C153.336 28.8267 153.403 28.4333 153.403 28.02V27.32H153.003ZM158.687 33.88C159.06 34.36 159.567 34.7667 160.207 35.1C160.86 35.4333 161.547 35.6 162.267 35.6C162.933 35.6 163.5 35.5 163.967 35.3C164.433 35.1133 164.807 34.8533 165.087 34.52C165.38 34.1867 165.593 33.7933 165.727 33.34C165.86 32.9 165.927 32.4267 165.927 31.92V30.16H165.887C165.527 30.7467 165.013 31.2 164.347 31.52C163.693 31.84 163.027 32 162.347 32C161.613 32 160.947 31.88 160.347 31.64C159.76 31.4 159.253 31.0733 158.827 30.66C158.413 30.2333 158.087 29.7267 157.847 29.14C157.62 28.5533 157.507 27.92 157.507 27.24C157.507 26.5733 157.62 25.9467 157.847 25.36C158.087 24.7733 158.413 24.26 158.827 23.82C159.253 23.38 159.76 23.0333 160.347 22.78C160.947 22.5267 161.613 22.4 162.347 22.4C163.027 22.4 163.693 22.56 164.347 22.88C165 23.2 165.513 23.66 165.887 24.26H165.927V22.64H167.287V31.92C167.287 32.4267 167.213 32.9667 167.067 33.54C166.933 34.1133 166.673 34.64 166.287 35.12C165.913 35.6 165.4 36 164.747 36.32C164.093 36.64 163.247 36.8 162.207 36.8C161.34 36.8 160.513 36.6333 159.727 36.3C158.94 35.9667 158.267 35.5067 157.707 34.92L158.687 33.88ZM158.947 27.2C158.947 27.6933 159.027 28.16 159.187 28.6C159.347 29.04 159.573 29.4267 159.867 29.76C160.173 30.0933 160.547 30.36 160.987 30.56C161.427 30.7467 161.927 30.84 162.487 30.84C163.007 30.84 163.487 30.7533 163.927 30.58C164.367 30.4067 164.747 30.16 165.067 29.84C165.387 29.52 165.633 29.14 165.807 28.7C165.993 28.2467 166.087 27.7467 166.087 27.2C166.087 26.7067 165.993 26.24 165.807 25.8C165.633 25.36 165.387 24.9733 165.067 24.64C164.747 24.3067 164.367 24.04 163.927 23.84C163.487 23.64 163.007 23.54 162.487 23.54C161.927 23.54 161.427 23.64 160.987 23.84C160.547 24.04 160.173 24.3067 159.867 24.64C159.573 24.9733 159.347 25.36 159.187 25.8C159.027 26.24 158.947 26.7067 158.947 27.2ZM177.963 26.6C177.923 25.72 177.637 24.9933 177.103 24.42C176.583 23.8333 175.837 23.54 174.863 23.54C174.41 23.54 173.99 23.6267 173.603 23.8C173.217 23.96 172.877 24.1867 172.583 24.48C172.29 24.76 172.057 25.0867 171.883 25.46C171.71 25.82 171.61 26.2 171.583 26.6H177.963ZM179.343 27.04C179.343 27.1333 179.343 27.2333 179.343 27.34C179.343 27.4467 179.337 27.56 179.323 27.68H171.563C171.577 28.1467 171.67 28.5867 171.843 29C172.017 29.4133 172.257 29.7733 172.563 30.08C172.87 30.3867 173.23 30.6333 173.643 30.82C174.057 30.9933 174.503 31.08 174.983 31.08C175.69 31.08 176.297 30.92 176.803 30.6C177.323 30.2667 177.717 29.8867 177.983 29.46L179.003 30.26C178.443 30.9667 177.823 31.4733 177.143 31.78C176.477 32.0867 175.757 32.24 174.983 32.24C174.29 32.24 173.643 32.12 173.043 31.88C172.457 31.6267 171.95 31.28 171.523 30.84C171.097 30.4 170.757 29.88 170.503 29.28C170.263 28.68 170.143 28.0267 170.143 27.32C170.143 26.6133 170.263 25.96 170.503 25.36C170.743 24.76 171.077 24.24 171.503 23.8C171.93 23.36 172.43 23.02 173.003 22.78C173.577 22.5267 174.197 22.4 174.863 22.4C175.597 22.4 176.243 22.5267 176.803 22.78C177.363 23.02 177.83 23.3533 178.203 23.78C178.577 24.1933 178.857 24.68 179.043 25.24C179.243 25.8 179.343 26.4 179.343 27.04ZM182.269 24.7C182.269 24.4467 182.262 24.12 182.249 23.72C182.235 23.32 182.215 22.96 182.189 22.64H183.489C183.515 22.8933 183.535 23.1733 183.549 23.48C183.562 23.7867 183.569 24.04 183.569 24.24H183.609C183.875 23.6933 184.275 23.2533 184.809 22.92C185.342 22.5733 185.942 22.4 186.609 22.4C186.782 22.4 186.935 22.4067 187.069 22.42C187.215 22.4333 187.362 22.46 187.509 22.5L187.329 23.78C187.249 23.7533 187.115 23.7267 186.929 23.7C186.742 23.6733 186.555 23.66 186.369 23.66C186.009 23.66 185.662 23.7267 185.329 23.86C184.995 23.9933 184.702 24.2067 184.449 24.5C184.209 24.78 184.009 25.1467 183.849 25.6C183.702 26.04 183.629 26.5733 183.629 27.2V32H182.269V24.7Z" fill="#3B3B3B"/>
<path d="M212 26.0002L221.333 26.0002M221.333 26.0002L216.667 21.3335M221.333 26.0002L216.667 30.6668" stroke="#3B3B3B" stroke-width="1.6" stroke-linecap="round" stroke-linejoin="round"/>
<rect width="102" height="52" transform="translate(235.333)" fill="#F6F4F1"/>
<path d="M247.213 17.84H251.433C251.967 17.84 252.507 17.9 253.053 18.02C253.6 18.1267 254.087 18.32 254.513 18.6C254.953 18.8667 255.307 19.2333 255.573 19.7C255.853 20.1667 255.993 20.7533 255.993 21.46C255.993 22.2067 255.767 22.86 255.313 23.42C254.86 23.9667 254.253 24.3267 253.493 24.5V24.54C254.413 24.6467 255.173 25.0067 255.773 25.62C256.387 26.22 256.693 27.04 256.693 28.08C256.693 28.6667 256.567 29.2067 256.313 29.7C256.073 30.18 255.727 30.5933 255.273 30.94C254.82 31.2733 254.267 31.5333 253.613 31.72C252.96 31.9067 252.227 32 251.413 32H247.213V17.84ZM248.653 24.04H251.553C251.9 24.04 252.247 24 252.593 23.92C252.953 23.84 253.28 23.7067 253.573 23.52C253.867 23.32 254.1 23.06 254.273 22.74C254.46 22.42 254.553 22.0267 254.553 21.56C254.553 21.1067 254.46 20.7267 254.273 20.42C254.1 20.1 253.86 19.84 253.553 19.64C253.247 19.44 252.887 19.3 252.473 19.22C252.06 19.1267 251.62 19.08 251.153 19.08H248.653V24.04ZM248.653 30.76H251.333C251.853 30.76 252.347 30.7133 252.813 30.62C253.293 30.5133 253.707 30.3533 254.053 30.14C254.413 29.9133 254.7 29.6267 254.913 29.28C255.127 28.92 255.233 28.4933 255.233 28C255.233 27.0667 254.913 26.3733 254.273 25.92C253.647 25.4533 252.753 25.22 251.593 25.22H248.653V30.76ZM265.148 32.36C264.082 32.36 263.208 32.18 262.528 31.82C261.848 31.4467 261.308 30.98 260.908 30.42C260.508 29.86 260.228 29.2533 260.068 28.6C259.922 27.9333 259.848 27.3067 259.848 26.72V17.84H261.288V26.56C261.288 27.1333 261.355 27.6933 261.488 28.24C261.622 28.7733 261.835 29.2533 262.128 29.68C262.435 30.0933 262.835 30.4333 263.328 30.7C263.822 30.9533 264.428 31.08 265.148 31.08C265.868 31.08 266.475 30.9533 266.968 30.7C267.462 30.4333 267.855 30.0933 268.148 29.68C268.455 29.2533 268.675 28.7733 268.808 28.24C268.942 27.6933 269.008 27.1333 269.008 26.56V17.84H270.448V26.72C270.448 27.3067 270.368 27.9333 270.208 28.6C270.062 29.2533 269.788 29.86 269.388 30.42C268.988 30.98 268.442 31.4467 267.748 31.82C267.068 32.18 266.202 32.36 265.148 32.36ZM279.127 17.84H280.567V23.98H288.287V17.84H289.727V32H288.287V25.3H280.567V32H279.127V17.84ZM300.543 26.6C300.503 25.72 300.216 24.9933 299.683 24.42C299.163 23.8333 298.416 23.54 297.443 23.54C296.99 23.54 296.57 23.6267 296.183 23.8C295.796 23.96 295.456 24.1867 295.163 24.48C294.87 24.76 294.636 25.0867 294.463 25.46C294.29 25.82 294.19 26.2 294.163 26.6H300.543ZM301.923 27.04C301.923 27.1333 301.923 27.2333 301.923 27.34C301.923 27.4467 301.916 27.56 301.903 27.68H294.143C294.156 28.1467 294.25 28.5867 294.423 29C294.596 29.4133 294.836 29.7733 295.143 30.08C295.45 30.3867 295.81 30.6333 296.223 30.82C296.636 30.9933 297.083 31.08 297.563 31.08C298.27 31.08 298.876 30.92 299.383 30.6C299.903 30.2667 300.296 29.8867 300.563 29.46L301.583 30.26C301.023 30.9667 300.403 31.4733 299.723 31.78C299.056 32.0867 298.336 32.24 297.563 32.24C296.87 32.24 296.223 32.12 295.623 31.88C295.036 31.6267 294.53 31.28 294.103 30.84C293.676 30.4 293.336 29.88 293.083 29.28C292.843 28.68 292.723 28.0267 292.723 27.32C292.723 26.6133 292.843 25.96 293.083 25.36C293.323 24.76 293.656 24.24 294.083 23.8C294.51 23.36 295.01 23.02 295.583 22.78C296.156 22.5267 296.776 22.4 297.443 22.4C298.176 22.4 298.823 22.5267 299.383 22.78C299.943 23.02 300.41 23.3533 300.783 23.78C301.156 24.1933 301.436 24.68 301.623 25.24C301.823 25.8 301.923 26.4 301.923 27.04ZM310.631 25.96C310.631 25.1467 310.418 24.54 309.991 24.14C309.564 23.74 308.944 23.54 308.131 23.54C307.571 23.54 307.051 23.64 306.571 23.84C306.091 24.04 305.684 24.3067 305.351 24.64L304.591 23.74C304.978 23.3533 305.484 23.0333 306.111 22.78C306.751 22.5267 307.471 22.4 308.271 22.4C308.778 22.4 309.251 22.4733 309.691 22.62C310.131 22.7533 310.518 22.96 310.851 23.24C311.184 23.52 311.444 23.8733 311.631 24.3C311.818 24.7267 311.911 25.2267 311.911 25.8V29.9C311.911 30.26 311.924 30.6333 311.951 31.02C311.978 31.4067 312.018 31.7333 312.071 32H310.851C310.811 31.7733 310.778 31.5267 310.751 31.26C310.724 30.9933 310.711 30.7333 310.711 30.48H310.671C310.244 31.1067 309.758 31.56 309.211 31.84C308.678 32.1067 308.031 32.24 307.271 32.24C306.911 32.24 306.538 32.1867 306.151 32.08C305.778 31.9867 305.431 31.8267 305.111 31.6C304.804 31.3733 304.544 31.08 304.331 30.72C304.131 30.36 304.031 29.92 304.031 29.4C304.031 28.68 304.211 28.1133 304.571 27.7C304.944 27.2733 305.438 26.96 306.051 26.76C306.664 26.5467 307.364 26.4133 308.151 26.36C308.951 26.2933 309.778 26.26 310.631 26.26V25.96ZM310.231 27.32C309.671 27.32 309.104 27.3467 308.531 27.4C307.971 27.44 307.458 27.5333 306.991 27.68C306.538 27.8133 306.164 28.0133 305.871 28.28C305.578 28.5467 305.431 28.9 305.431 29.34C305.431 29.6733 305.491 29.9533 305.611 30.18C305.744 30.4067 305.918 30.5933 306.131 30.74C306.344 30.8733 306.578 30.9733 306.831 31.04C307.098 31.0933 307.364 31.12 307.631 31.12C308.111 31.12 308.538 31.04 308.911 30.88C309.284 30.7067 309.598 30.48 309.851 30.2C310.104 29.9067 310.298 29.5733 310.431 29.2C310.564 28.8267 310.631 28.4333 310.631 28.02V27.32H310.231ZM323.115 30.42C322.715 31.02 322.195 31.4733 321.555 31.78C320.915 32.0867 320.255 32.24 319.575 32.24C318.841 32.24 318.175 32.1133 317.575 31.86C316.988 31.6067 316.481 31.26 316.055 30.82C315.641 30.38 315.315 29.86 315.075 29.26C314.848 28.66 314.735 28.0133 314.735 27.32C314.735 26.6267 314.848 25.98 315.075 25.38C315.315 24.78 315.641 24.26 316.055 23.82C316.481 23.38 316.988 23.0333 317.575 22.78C318.175 22.5267 318.841 22.4 319.575 22.4C320.255 22.4 320.915 22.56 321.555 22.88C322.195 23.1867 322.715 23.6467 323.115 24.26H323.155V16.88H324.515V32H323.155V30.42H323.115ZM316.175 27.32C316.175 27.84 316.255 28.3333 316.415 28.8C316.575 29.2533 316.801 29.6533 317.095 30C317.401 30.3333 317.775 30.6 318.215 30.8C318.655 30.9867 319.155 31.08 319.715 31.08C320.235 31.08 320.715 30.9867 321.155 30.8C321.595 30.6 321.975 30.3333 322.295 30C322.615 29.6667 322.861 29.2733 323.035 28.82C323.221 28.3533 323.315 27.8533 323.315 27.32C323.315 26.7867 323.221 26.2933 323.035 25.84C322.861 25.3733 322.615 24.9733 322.295 24.64C321.975 24.2933 321.595 24.0267 321.155 23.84C320.715 23.64 320.235 23.54 319.715 23.54C319.155 23.54 318.655 23.64 318.215 23.84C317.775 24.04 317.401 24.3133 317.095 24.66C316.801 24.9933 316.575 25.3933 316.415 25.86C316.255 26.3133 316.175 26.8 316.175 27.32Z" fill="#3B3B3B"/>
<path d="M351.333 26.0002L360.667 26.0002M360.667 26.0002L356 21.3335M360.667 26.0002L356 30.6668" stroke="#3B3B3B" stroke-width="1.6" stroke-linecap="round" stroke-linejoin="round"/>
<rect width="79" height="52" transform="translate(374.667)" fill="#F6F4F1"/>
<path d="M386.547 17.84H387.987V23.98H395.707V17.84H397.147V32H395.707V25.3H387.987V32H386.547V17.84ZM402.342 32H400.902V17.84H405.062C405.755 17.84 406.395 17.9067 406.982 18.04C407.582 18.1733 408.095 18.3933 408.522 18.7C408.962 18.9933 409.302 19.38 409.542 19.86C409.782 20.34 409.902 20.9267 409.902 21.62C409.902 22.14 409.809 22.6133 409.622 23.04C409.435 23.4667 409.182 23.84 408.862 24.16C408.542 24.4667 408.162 24.7133 407.722 24.9C407.282 25.0867 406.802 25.2067 406.282 25.26L410.422 32H408.662L404.742 25.38H402.342V32ZM402.342 24.14H404.842C406.002 24.14 406.895 23.9333 407.522 23.52C408.149 23.0933 408.462 22.46 408.462 21.62C408.462 21.1533 408.375 20.76 408.202 20.44C408.029 20.12 407.789 19.86 407.482 19.66C407.175 19.46 406.802 19.3133 406.362 19.22C405.922 19.1267 405.435 19.08 404.902 19.08H402.342V24.14ZM412.875 17.84H417.095C417.628 17.84 418.168 17.9 418.715 18.02C419.261 18.1267 419.748 18.32 420.175 18.6C420.615 18.8667 420.968 19.2333 421.235 19.7C421.515 20.1667 421.655 20.7533 421.655 21.46C421.655 22.2067 421.428 22.86 420.975 23.42C420.521 23.9667 419.915 24.3267 419.155 24.5V24.54C420.075 24.6467 420.835 25.0067 421.435 25.62C422.048 26.22 422.355 27.04 422.355 28.08C422.355 28.6667 422.228 29.2067 421.975 29.7C421.735 30.18 421.388 30.5933 420.935 30.94C420.481 31.2733 419.928 31.5333 419.275 31.72C418.621 31.9067 417.888 32 417.075 32H412.875V17.84ZM414.315 24.04H417.215C417.561 24.04 417.908 24 418.255 23.92C418.615 23.84 418.941 23.7067 419.235 23.52C419.528 23.32 419.761 23.06 419.935 22.74C420.121 22.42 420.215 22.0267 420.215 21.56C420.215 21.1067 420.121 20.7267 419.935 20.42C419.761 20.1 419.521 19.84 419.215 19.64C418.908 19.44 418.548 19.3 418.135 19.22C417.721 19.1267 417.281 19.08 416.815 19.08H414.315V24.04ZM414.315 30.76H416.995C417.515 30.76 418.008 30.7133 418.475 30.62C418.955 30.5133 419.368 30.3533 419.715 30.14C420.075 29.9133 420.361 29.6267 420.575 29.28C420.788 28.92 420.895 28.4933 420.895 28C420.895 27.0667 420.575 26.3733 419.935 25.92C419.308 25.4533 418.415 25.22 417.255 25.22H414.315V30.76ZM425.59 17.84H429.59C430.31 17.84 430.963 17.92 431.55 18.08C432.136 18.2267 432.636 18.46 433.05 18.78C433.476 19.0867 433.803 19.48 434.03 19.96C434.256 20.4267 434.37 20.98 434.37 21.62C434.37 22.26 434.25 22.82 434.01 23.3C433.783 23.7667 433.456 24.16 433.03 24.48C432.616 24.7867 432.11 25.02 431.51 25.18C430.923 25.34 430.27 25.42 429.55 25.42H427.03V32H425.59V17.84ZM427.03 24.2H429.47C430.603 24.2 431.463 23.98 432.05 23.54C432.636 23.1 432.93 22.46 432.93 21.62C432.93 20.74 432.623 20.1 432.01 19.7C431.41 19.2867 430.563 19.08 429.47 19.08H427.03V24.2ZM441.134 24.86C440.934 24.4733 440.627 24.16 440.214 23.92C439.814 23.6667 439.354 23.54 438.834 23.54C438.594 23.54 438.354 23.5667 438.114 23.62C437.874 23.6733 437.661 23.76 437.474 23.88C437.287 24 437.134 24.1533 437.014 24.34C436.907 24.5267 436.854 24.7467 436.854 25C436.854 25.44 437.034 25.78 437.394 26.02C437.754 26.2467 438.321 26.44 439.094 26.6C440.201 26.8267 441.014 27.16 441.534 27.6C442.067 28.0267 442.334 28.6067 442.334 29.34C442.334 29.8733 442.227 30.3267 442.014 30.7C441.814 31.06 441.547 31.36 441.214 31.6C440.881 31.8267 440.501 31.9867 440.074 32.08C439.661 32.1867 439.241 32.24 438.814 32.24C438.107 32.24 437.421 32.0933 436.754 31.8C436.087 31.5067 435.541 31.0467 435.114 30.42L436.194 29.62C436.434 30.0333 436.787 30.38 437.254 30.66C437.721 30.94 438.234 31.08 438.794 31.08C439.087 31.08 439.367 31.0533 439.634 31C439.901 30.9467 440.134 30.8533 440.334 30.72C440.534 30.5867 440.694 30.42 440.814 30.22C440.934 30.0067 440.994 29.7467 440.994 29.44C440.994 28.9467 440.754 28.58 440.274 28.34C439.807 28.0867 439.127 27.8533 438.234 27.64C437.954 27.5733 437.654 27.4933 437.334 27.4C437.027 27.2933 436.741 27.1467 436.474 26.96C436.207 26.76 435.987 26.5133 435.814 26.22C435.641 25.9267 435.554 25.56 435.554 25.12C435.554 24.64 435.647 24.2333 435.834 23.9C436.021 23.5533 436.267 23.2733 436.574 23.06C436.894 22.8333 437.254 22.6667 437.654 22.56C438.054 22.4533 438.467 22.4 438.894 22.4C439.547 22.4 440.181 22.5467 440.794 22.84C441.407 23.1333 441.867 23.5467 442.174 24.08L441.134 24.86Z" fill="#3B3B3B"/>
<path d="M467.667 26.0002L477 26.0002M477 26.0002L472.333 21.3335M477 26.0002L472.333 30.6668" stroke="#3B3B3B" stroke-width="1.6" stroke-linecap="round" stroke-linejoin="round"/>
<rect width="122" height="52" transform="translate(491)" fill="#F6F4F1"/>
<path d="M504.32 30.72H510.92V32H502.88V17.84H504.32V30.72ZM519.784 26.6C519.744 25.72 519.457 24.9933 518.924 24.42C518.404 23.8333 517.657 23.54 516.684 23.54C516.23 23.54 515.81 23.6267 515.424 23.8C515.037 23.96 514.697 24.1867 514.404 24.48C514.11 24.76 513.877 25.0867 513.704 25.46C513.53 25.82 513.43 26.2 513.404 26.6H519.784ZM521.164 27.04C521.164 27.1333 521.164 27.2333 521.164 27.34C521.164 27.4467 521.157 27.56 521.144 27.68H513.384C513.397 28.1467 513.49 28.5867 513.664 29C513.837 29.4133 514.077 29.7733 514.384 30.08C514.69 30.3867 515.05 30.6333 515.464 30.82C515.877 30.9933 516.324 31.08 516.804 31.08C517.51 31.08 518.117 30.92 518.624 30.6C519.144 30.2667 519.537 29.8867 519.804 29.46L520.824 30.26C520.264 30.9667 519.644 31.4733 518.964 31.78C518.297 32.0867 517.577 32.24 516.804 32.24C516.11 32.24 515.464 32.12 514.864 31.88C514.277 31.6267 513.77 31.28 513.344 30.84C512.917 30.4 512.577 29.88 512.324 29.28C512.084 28.68 511.964 28.0267 511.964 27.32C511.964 26.6133 512.084 25.96 512.324 25.36C512.564 24.76 512.897 24.24 513.324 23.8C513.75 23.36 514.25 23.02 514.824 22.78C515.397 22.5267 516.017 22.4 516.684 22.4C517.417 22.4 518.064 22.5267 518.624 22.78C519.184 23.02 519.65 23.3533 520.024 23.78C520.397 24.1933 520.677 24.68 520.864 25.24C521.064 25.8 521.164 26.4 521.164 27.04ZM529.872 25.96C529.872 25.1467 529.659 24.54 529.232 24.14C528.805 23.74 528.185 23.54 527.372 23.54C526.812 23.54 526.292 23.64 525.812 23.84C525.332 24.04 524.925 24.3067 524.592 24.64L523.832 23.74C524.219 23.3533 524.725 23.0333 525.352 22.78C525.992 22.5267 526.712 22.4 527.512 22.4C528.019 22.4 528.492 22.4733 528.932 22.62C529.372 22.7533 529.759 22.96 530.092 23.24C530.425 23.52 530.685 23.8733 530.872 24.3C531.059 24.7267 531.152 25.2267 531.152 25.8V29.9C531.152 30.26 531.165 30.6333 531.192 31.02C531.219 31.4067 531.259 31.7333 531.312 32H530.092C530.052 31.7733 530.019 31.5267 529.992 31.26C529.965 30.9933 529.952 30.7333 529.952 30.48H529.912C529.485 31.1067 528.999 31.56 528.452 31.84C527.919 32.1067 527.272 32.24 526.512 32.24C526.152 32.24 525.779 32.1867 525.392 32.08C525.019 31.9867 524.672 31.8267 524.352 31.6C524.045 31.3733 523.785 31.08 523.572 30.72C523.372 30.36 523.272 29.92 523.272 29.4C523.272 28.68 523.452 28.1133 523.812 27.7C524.185 27.2733 524.679 26.96 525.292 26.76C525.905 26.5467 526.605 26.4133 527.392 26.36C528.192 26.2933 529.019 26.26 529.872 26.26V25.96ZM529.472 27.32C528.912 27.32 528.345 27.3467 527.772 27.4C527.212 27.44 526.699 27.5333 526.232 27.68C525.779 27.8133 525.405 28.0133 525.112 28.28C524.819 28.5467 524.672 28.9 524.672 29.34C524.672 29.6733 524.732 29.9533 524.852 30.18C524.985 30.4067 525.159 30.5933 525.372 30.74C525.585 30.8733 525.819 30.9733 526.072 31.04C526.339 31.0933 526.605 31.12 526.872 31.12C527.352 31.12 527.779 31.04 528.152 30.88C528.525 30.7067 528.839 30.48 529.092 30.2C529.345 29.9067 529.539 29.5733 529.672 29.2C529.805 28.8267 529.872 28.4333 529.872 28.02V27.32H529.472ZM542.355 30.42C541.955 31.02 541.435 31.4733 540.795 31.78C540.155 32.0867 539.495 32.24 538.815 32.24C538.082 32.24 537.415 32.1133 536.815 31.86C536.229 31.6067 535.722 31.26 535.295 30.82C534.882 30.38 534.555 29.86 534.315 29.26C534.089 28.66 533.975 28.0133 533.975 27.32C533.975 26.6267 534.089 25.98 534.315 25.38C534.555 24.78 534.882 24.26 535.295 23.82C535.722 23.38 536.229 23.0333 536.815 22.78C537.415 22.5267 538.082 22.4 538.815 22.4C539.495 22.4 540.155 22.56 540.795 22.88C541.435 23.1867 541.955 23.6467 542.355 24.26H542.395V16.88H543.755V32H542.395V30.42H542.355ZM535.415 27.32C535.415 27.84 535.495 28.3333 535.655 28.8C535.815 29.2533 536.042 29.6533 536.335 30C536.642 30.3333 537.015 30.6 537.455 30.8C537.895 30.9867 538.395 31.08 538.955 31.08C539.475 31.08 539.955 30.9867 540.395 30.8C540.835 30.6 541.215 30.3333 541.535 30C541.855 29.6667 542.102 29.2733 542.275 28.82C542.462 28.3533 542.555 27.8533 542.555 27.32C542.555 26.7867 542.462 26.2933 542.275 25.84C542.102 25.3733 541.855 24.9733 541.535 24.64C541.215 24.2933 540.835 24.0267 540.395 23.84C539.955 23.64 539.475 23.54 538.955 23.54C538.395 23.54 537.895 23.64 537.455 23.84C537.015 24.04 536.642 24.3133 536.335 24.66C536.042 24.9933 535.815 25.3933 535.655 25.86C535.495 26.3133 535.415 26.8 535.415 27.32ZM554.53 26.6C554.49 25.72 554.203 24.9933 553.67 24.42C553.15 23.8333 552.403 23.54 551.43 23.54C550.977 23.54 550.557 23.6267 550.17 23.8C549.783 23.96 549.443 24.1867 549.15 24.48C548.857 24.76 548.623 25.0867 548.45 25.46C548.277 25.82 548.177 26.2 548.15 26.6H554.53ZM555.91 27.04C555.91 27.1333 555.91 27.2333 555.91 27.34C555.91 27.4467 555.903 27.56 555.89 27.68H548.13C548.143 28.1467 548.237 28.5867 548.41 29C548.583 29.4133 548.823 29.7733 549.13 30.08C549.437 30.3867 549.797 30.6333 550.21 30.82C550.623 30.9933 551.07 31.08 551.55 31.08C552.257 31.08 552.863 30.92 553.37 30.6C553.89 30.2667 554.283 29.8867 554.55 29.46L555.57 30.26C555.01 30.9667 554.39 31.4733 553.71 31.78C553.043 32.0867 552.323 32.24 551.55 32.24C550.857 32.24 550.21 32.12 549.61 31.88C549.023 31.6267 548.517 31.28 548.09 30.84C547.663 30.4 547.323 29.88 547.07 29.28C546.83 28.68 546.71 28.0267 546.71 27.32C546.71 26.6133 546.83 25.96 547.07 25.36C547.31 24.76 547.643 24.24 548.07 23.8C548.497 23.36 548.997 23.02 549.57 22.78C550.143 22.5267 550.763 22.4 551.43 22.4C552.163 22.4 552.81 22.5267 553.37 22.78C553.93 23.02 554.397 23.3533 554.77 23.78C555.143 24.1933 555.423 24.68 555.61 25.24C555.81 25.8 555.91 26.4 555.91 27.04ZM558.835 24.7C558.835 24.4467 558.829 24.12 558.815 23.72C558.802 23.32 558.782 22.96 558.755 22.64H560.055C560.082 22.8933 560.102 23.1733 560.115 23.48C560.129 23.7867 560.135 24.04 560.135 24.24H560.175C560.442 23.6933 560.842 23.2533 561.375 22.92C561.909 22.5733 562.509 22.4 563.175 22.4C563.349 22.4 563.502 22.4067 563.635 22.42C563.782 22.4333 563.929 22.46 564.075 22.5L563.895 23.78C563.815 23.7533 563.682 23.7267 563.495 23.7C563.309 23.6733 563.122 23.66 562.935 23.66C562.575 23.66 562.229 23.7267 561.895 23.86C561.562 23.9933 561.269 24.2067 561.015 24.5C560.775 24.78 560.575 25.1467 560.415 25.6C560.269 26.04 560.195 26.5733 560.195 27.2V32H558.835V24.7ZM571.022 24.86C570.822 24.4733 570.516 24.16 570.102 23.92C569.702 23.6667 569.242 23.54 568.722 23.54C568.482 23.54 568.242 23.5667 568.002 23.62C567.762 23.6733 567.549 23.76 567.362 23.88C567.176 24 567.022 24.1533 566.902 24.34C566.796 24.5267 566.742 24.7467 566.742 25C566.742 25.44 566.922 25.78 567.282 26.02C567.642 26.2467 568.209 26.44 568.982 26.6C570.089 26.8267 570.902 27.16 571.422 27.6C571.956 28.0267 572.222 28.6067 572.222 29.34C572.222 29.8733 572.116 30.3267 571.902 30.7C571.702 31.06 571.436 31.36 571.102 31.6C570.769 31.8267 570.389 31.9867 569.962 32.08C569.549 32.1867 569.129 32.24 568.702 32.24C567.996 32.24 567.309 32.0933 566.642 31.8C565.976 31.5067 565.429 31.0467 565.002 30.42L566.082 29.62C566.322 30.0333 566.676 30.38 567.142 30.66C567.609 30.94 568.122 31.08 568.682 31.08C568.976 31.08 569.256 31.0533 569.522 31C569.789 30.9467 570.022 30.8533 570.222 30.72C570.422 30.5867 570.582 30.42 570.702 30.22C570.822 30.0067 570.882 29.7467 570.882 29.44C570.882 28.9467 570.642 28.58 570.162 28.34C569.696 28.0867 569.016 27.8533 568.122 27.64C567.842 27.5733 567.542 27.4933 567.222 27.4C566.916 27.2933 566.629 27.1467 566.362 26.96C566.096 26.76 565.876 26.5133 565.702 26.22C565.529 25.9267 565.442 25.56 565.442 25.12C565.442 24.64 565.536 24.2333 565.722 23.9C565.909 23.5533 566.156 23.2733 566.462 23.06C566.782 22.8333 567.142 22.6667 567.542 22.56C567.942 22.4533 568.356 22.4 568.782 22.4C569.436 22.4 570.069 22.5467 570.682 22.84C571.296 23.1333 571.756 23.5467 572.062 24.08L571.022 24.86ZM576.369 24.18C576.622 23.6333 577.042 23.2 577.629 22.88C578.216 22.56 578.842 22.4 579.509 22.4C580.696 22.4 581.582 22.7533 582.169 23.46C582.769 24.1667 583.069 25.1 583.069 26.26V32H581.709V26.82C581.709 26.3267 581.669 25.88 581.589 25.48C581.509 25.08 581.369 24.74 581.169 24.46C580.982 24.1667 580.722 23.94 580.389 23.78C580.069 23.62 579.662 23.54 579.169 23.54C578.809 23.54 578.456 23.6133 578.109 23.76C577.776 23.9067 577.476 24.1333 577.209 24.44C576.942 24.7333 576.729 25.1133 576.569 25.58C576.409 26.0333 576.329 26.5733 576.329 27.2V32H574.969V16.88H576.329V24.18H576.369ZM587.969 32H586.609V22.64H587.969V32ZM588.249 19.04C588.249 19.32 588.149 19.5533 587.949 19.74C587.749 19.9133 587.529 20 587.289 20C587.049 20 586.829 19.9133 586.629 19.74C586.429 19.5533 586.329 19.32 586.329 19.04C586.329 18.76 586.429 18.5333 586.629 18.36C586.829 18.1733 587.049 18.08 587.289 18.08C587.529 18.08 587.749 18.1733 587.949 18.36C588.149 18.5333 588.249 18.76 588.249 19.04ZM592.949 36.8H591.589V22.64H592.949V24.26H593.009C593.396 23.6467 593.909 23.1867 594.549 22.88C595.202 22.56 595.862 22.4 596.529 22.4C597.262 22.4 597.922 22.5267 598.509 22.78C599.109 23.0333 599.616 23.38 600.029 23.82C600.456 24.26 600.782 24.78 601.009 25.38C601.249 25.98 601.369 26.6267 601.369 27.32C601.369 28.0133 601.249 28.66 601.009 29.26C600.782 29.86 600.456 30.38 600.029 30.82C599.616 31.26 599.109 31.6067 598.509 31.86C597.922 32.1133 597.262 32.24 596.529 32.24C595.862 32.24 595.202 32.0867 594.549 31.78C593.909 31.46 593.396 31.0067 593.009 30.42H592.949V36.8ZM599.929 27.32C599.929 26.8 599.849 26.3133 599.689 25.86C599.529 25.3933 599.296 24.9933 598.989 24.66C598.696 24.3133 598.329 24.04 597.889 23.84C597.449 23.64 596.949 23.54 596.389 23.54C595.869 23.54 595.389 23.64 594.949 23.84C594.509 24.0267 594.129 24.2933 593.809 24.64C593.489 24.9733 593.236 25.3733 593.049 25.84C592.876 26.2933 592.789 26.7867 592.789 27.32C592.789 27.8533 592.876 28.3533 593.049 28.82C593.236 29.2733 593.489 29.6667 593.809 30C594.129 30.3333 594.509 30.6 594.949 30.8C595.389 30.9867 595.869 31.08 596.389 31.08C596.949 31.08 597.449 30.9867 597.889 30.8C598.329 30.6 598.696 30.3333 598.989 30C599.296 29.6533 599.529 29.2533 599.689 28.8C599.849 28.3333 599.929 27.84 599.929 27.32Z" fill="#3B3B3B"/>
<path d="M627 26.0002L636.333 26.0002M636.333 26.0002L631.667 21.3335M636.333 26.0002L631.667 30.6668" stroke="#3B3B3B" stroke-width="1.6" stroke-linecap="round" stroke-linejoin="round"/>
<rect width="141" height="52" transform="translate(650.333)" fill="#F6F4F1"/>
<path d="M662.213 17.84H663.653V23.98H671.373V17.84H672.813V32H671.373V25.3H663.653V32H662.213V17.84ZM678.009 32H676.569V17.84H680.729C681.422 17.84 682.062 17.9067 682.649 18.04C683.249 18.1733 683.762 18.3933 684.189 18.7C684.629 18.9933 684.969 19.38 685.209 19.86C685.449 20.34 685.569 20.9267 685.569 21.62C685.569 22.14 685.475 22.6133 685.289 23.04C685.102 23.4667 684.849 23.84 684.529 24.16C684.209 24.4667 683.829 24.7133 683.389 24.9C682.949 25.0867 682.469 25.2067 681.949 25.26L686.089 32H684.329L680.409 25.38H678.009V32ZM678.009 24.14H680.509C681.669 24.14 682.562 23.9333 683.189 23.52C683.815 23.0933 684.129 22.46 684.129 21.62C684.129 21.1533 684.042 20.76 683.869 20.44C683.695 20.12 683.455 19.86 683.149 19.66C682.842 19.46 682.469 19.3133 682.029 19.22C681.589 19.1267 681.102 19.08 680.569 19.08H678.009V24.14ZM694.981 30.72H702.561V32H693.541V17.84H702.321V19.12H694.981V24H701.841V25.26H694.981V30.72ZM707.497 27.16L704.037 22.64H705.777L708.337 26.2L710.897 22.64H712.537L709.137 27.1L712.857 32H711.097L708.317 28.1L705.457 32H703.817L707.497 27.16ZM722.008 26.6C721.968 25.72 721.681 24.9933 721.148 24.42C720.628 23.8333 719.881 23.54 718.908 23.54C718.454 23.54 718.034 23.6267 717.648 23.8C717.261 23.96 716.921 24.1867 716.628 24.48C716.334 24.76 716.101 25.0867 715.928 25.46C715.754 25.82 715.654 26.2 715.628 26.6H722.008ZM723.388 27.04C723.388 27.1333 723.388 27.2333 723.388 27.34C723.388 27.4467 723.381 27.56 723.368 27.68H715.608C715.621 28.1467 715.714 28.5867 715.888 29C716.061 29.4133 716.301 29.7733 716.608 30.08C716.914 30.3867 717.274 30.6333 717.688 30.82C718.101 30.9933 718.548 31.08 719.028 31.08C719.734 31.08 720.341 30.92 720.848 30.6C721.368 30.2667 721.761 29.8867 722.028 29.46L723.048 30.26C722.488 30.9667 721.868 31.4733 721.188 31.78C720.521 32.0867 719.801 32.24 719.028 32.24C718.334 32.24 717.688 32.12 717.088 31.88C716.501 31.6267 715.994 31.28 715.568 30.84C715.141 30.4 714.801 29.88 714.548 29.28C714.308 28.68 714.188 28.0267 714.188 27.32C714.188 26.6133 714.308 25.96 714.548 25.36C714.788 24.76 715.121 24.24 715.548 23.8C715.974 23.36 716.474 23.02 717.048 22.78C717.621 22.5267 718.241 22.4 718.908 22.4C719.641 22.4 720.288 22.5267 720.848 22.78C721.408 23.02 721.874 23.3533 722.248 23.78C722.621 24.1933 722.901 24.68 723.088 25.24C723.288 25.8 723.388 26.4 723.388 27.04ZM733.053 24.78C732.826 24.42 732.493 24.1267 732.053 23.9C731.626 23.66 731.16 23.54 730.653 23.54C730.106 23.54 729.613 23.64 729.173 23.84C728.733 24.0267 728.353 24.2933 728.033 24.64C727.726 24.9733 727.486 25.3733 727.313 25.84C727.153 26.2933 727.073 26.7867 727.073 27.32C727.073 27.8533 727.153 28.3467 727.313 28.8C727.486 29.2533 727.726 29.6533 728.033 30C728.34 30.3333 728.713 30.6 729.153 30.8C729.593 30.9867 730.086 31.08 730.633 31.08C731.233 31.08 731.74 30.9667 732.153 30.74C732.566 30.5133 732.906 30.22 733.173 29.86L734.193 30.62C733.793 31.1133 733.3 31.5067 732.713 31.8C732.14 32.0933 731.446 32.24 730.633 32.24C729.873 32.24 729.186 32.12 728.573 31.88C727.96 31.6267 727.433 31.28 726.993 30.84C726.566 30.4 726.233 29.88 725.993 29.28C725.753 28.68 725.633 28.0267 725.633 27.32C725.633 26.6133 725.753 25.96 725.993 25.36C726.233 24.76 726.566 24.24 726.993 23.8C727.433 23.36 727.96 23.02 728.573 22.78C729.186 22.5267 729.873 22.4 730.633 22.4C731.26 22.4 731.893 22.54 732.533 22.82C733.186 23.0867 733.713 23.4867 734.113 24.02L733.053 24.78ZM743.113 32C743.086 31.7467 743.066 31.4667 743.053 31.16C743.04 30.8533 743.033 30.6 743.033 30.4H742.993C742.726 30.9467 742.293 31.3933 741.693 31.74C741.093 32.0733 740.46 32.24 739.793 32.24C738.606 32.24 737.713 31.8867 737.113 31.18C736.526 30.4733 736.233 29.54 736.233 28.38V22.64H737.593V27.82C737.593 28.3133 737.633 28.76 737.713 29.16C737.793 29.56 737.926 29.9067 738.113 30.2C738.313 30.48 738.573 30.7 738.893 30.86C739.226 31.02 739.64 31.1 740.133 31.1C740.493 31.1 740.84 31.0267 741.173 30.88C741.52 30.7333 741.826 30.5133 742.093 30.22C742.36 29.9133 742.573 29.5333 742.733 29.08C742.893 28.6133 742.973 28.0667 742.973 27.44V22.64H744.333V29.94C744.333 30.1933 744.34 30.52 744.353 30.92C744.366 31.32 744.386 31.68 744.413 32H743.113ZM752.154 23.78H749.514V29.24C749.514 29.5867 749.547 29.8733 749.614 30.1C749.681 30.3267 749.774 30.5067 749.894 30.64C750.027 30.76 750.181 30.8467 750.354 30.9C750.527 30.94 750.714 30.96 750.914 30.96C751.101 30.96 751.294 30.9333 751.494 30.88C751.707 30.8267 751.907 30.7533 752.094 30.66L752.154 31.84C751.914 31.9333 751.661 32 751.394 32.04C751.141 32.0933 750.861 32.12 750.554 32.12C750.301 32.12 750.034 32.0867 749.754 32.02C749.474 31.9533 749.214 31.8267 748.974 31.64C748.734 31.4533 748.534 31.2 748.374 30.88C748.227 30.56 748.154 30.14 748.154 29.62V23.78H746.214V22.64H748.154V20H749.514V22.64H752.154V23.78ZM755.662 32H754.302V22.64H755.662V32ZM755.942 19.04C755.942 19.32 755.842 19.5533 755.642 19.74C755.442 19.9133 755.222 20 754.982 20C754.742 20 754.522 19.9133 754.322 19.74C754.122 19.5533 754.022 19.32 754.022 19.04C754.022 18.76 754.122 18.5333 754.322 18.36C754.522 18.1733 754.742 18.08 754.982 18.08C755.222 18.08 755.442 18.1733 755.642 18.36C755.842 18.5333 755.942 18.76 755.942 19.04ZM768.582 27.32C768.582 28.0267 768.455 28.68 768.202 29.28C767.962 29.88 767.622 30.4 767.182 30.84C766.742 31.28 766.215 31.6267 765.602 31.88C764.988 32.12 764.315 32.24 763.582 32.24C762.862 32.24 762.195 32.12 761.582 31.88C760.968 31.6267 760.442 31.28 760.002 30.84C759.562 30.4 759.215 29.88 758.962 29.28C758.722 28.68 758.602 28.0267 758.602 27.32C758.602 26.6133 758.722 25.96 758.962 25.36C759.215 24.76 759.562 24.24 760.002 23.8C760.442 23.36 760.968 23.02 761.582 22.78C762.195 22.5267 762.862 22.4 763.582 22.4C764.315 22.4 764.988 22.5267 765.602 22.78C766.215 23.02 766.742 23.36 767.182 23.8C767.622 24.24 767.962 24.76 768.202 25.36C768.455 25.96 768.582 26.6133 768.582 27.32ZM767.142 27.32C767.142 26.8 767.055 26.3133 766.882 25.86C766.722 25.3933 766.488 24.9933 766.182 24.66C765.875 24.3133 765.502 24.04 765.062 23.84C764.622 23.64 764.128 23.54 763.582 23.54C763.035 23.54 762.542 23.64 762.102 23.84C761.675 24.04 761.308 24.3133 761.002 24.66C760.695 24.9933 760.455 25.3933 760.282 25.86C760.122 26.3133 760.042 26.8 760.042 27.32C760.042 27.84 760.122 28.3333 760.282 28.8C760.455 29.2533 760.695 29.6533 761.002 30C761.308 30.3333 761.675 30.6 762.102 30.8C762.542 30.9867 763.035 31.08 763.582 31.08C764.128 31.08 764.622 30.9867 765.062 30.8C765.502 30.6 765.875 30.3333 766.182 30C766.488 29.6533 766.722 29.2533 766.882 28.8C767.055 28.3333 767.142 27.84 767.142 27.32ZM772.728 22.64C772.755 22.8933 772.775 23.1733 772.788 23.48C772.802 23.7867 772.808 24.04 772.808 24.24H772.848C773.115 23.6933 773.548 23.2533 774.148 22.92C774.748 22.5733 775.382 22.4 776.048 22.4C777.235 22.4 778.122 22.7533 778.708 23.46C779.308 24.1667 779.608 25.1 779.608 26.26V32H778.248V26.82C778.248 26.3267 778.208 25.88 778.128 25.48C778.048 25.08 777.908 24.74 777.708 24.46C777.522 24.1667 777.262 23.94 776.928 23.78C776.608 23.62 776.202 23.54 775.708 23.54C775.348 23.54 774.995 23.6133 774.648 23.76C774.315 23.9067 774.015 24.1333 773.748 24.44C773.482 24.7333 773.268 25.1133 773.108 25.58C772.948 26.0333 772.868 26.5733 772.868 27.2V32H771.508V24.7C771.508 24.4467 771.502 24.12 771.488 23.72C771.475 23.32 771.455 22.96 771.428 22.64H772.728Z" fill="#3B3B3B"/>
</svg>
